<svg width="37" height="25" viewBox="0 0 37 25" fill="none" xmlns="http://www.w3.org/2000/svg">
<path d="M16.9488 19.8236C16.9989 19.974 17.0126 20.1341 16.9887 20.2907C16.9648 20.4474 16.904 20.5961 16.8113 20.7246C16.7187 20.8532 16.5968 20.9579 16.4558 21.0301C16.3147 21.1023 16.1585 21.1399 16 21.1399H6.00004C5.84158 21.1399 5.68539 21.1023 5.54433 21.0301C5.40328 20.9579 5.2814 20.8532 5.18874 20.7246C5.09609 20.5961 5.0353 20.4474 5.01141 20.2907C4.98751 20.1341 5.00118 19.974 5.05129 19.8236L10.0513 4.82364C10.1176 4.62448 10.245 4.45125 10.4152 4.32849C10.5855 4.20573 10.7901 4.13967 11 4.13967C11.21 4.13967 11.4146 4.20573 11.5848 4.32849C11.7551 4.45125 11.8825 4.62448 11.9488 4.82364L16.9488 19.8236ZM29 6.63989C29 5.35432 28.6188 4.09761 27.9046 3.02869C27.1904 1.95977 26.1752 1.12665 24.9875 0.634678C23.7998 0.142709 22.4928 0.0139873 21.232 0.264791C19.9711 0.515595 18.8129 1.13466 17.9038 2.0437C16.9948 2.95274 16.3757 4.11093 16.1249 5.37181C15.8741 6.63268 16.0029 7.93962 16.4948 9.12734C16.9868 10.3151 17.8199 11.3302 18.8888 12.0444C19.9578 12.7587 21.2145 13.1399 22.5 13.1399C24.2233 13.1379 25.8755 12.4525 27.094 11.2339C28.3126 10.0153 28.9981 8.36319 29 6.63989ZM31 15.1399H20C19.7348 15.1399 19.4805 15.2452 19.2929 15.4328C19.1054 15.6203 19 15.8747 19 16.1399V23.1399C19 23.4051 19.1054 23.6595 19.2929 23.847C19.4805 24.0345 19.7348 24.1399 20 24.1399H31C31.2653 24.1399 31.5196 24.0345 31.7071 23.847C31.8947 23.6595 32 23.4051 32 23.1399V16.1399C32 15.8747 31.8947 15.6203 31.7071 15.4328C31.5196 15.2452 31.2653 15.1399 31 15.1399Z" fill="#495B57"/>
</svg>
