<svg width="29" height="25" viewBox="0 0 29 25" fill="none" xmlns="http://www.w3.org/2000/svg">
<path d="M26.5 0.139893H19.5C18.4391 0.139893 17.4217 0.56132 16.6716 1.31147C15.9214 2.06161 15.5 3.07903 15.5 4.13989V15.1399C15.5 15.4051 15.3946 15.6595 15.2071 15.847C15.0196 16.0345 14.7652 16.1399 14.5 16.1399C14.2348 16.1399 13.9804 16.0345 13.7929 15.847C13.6054 15.6595 13.5 15.4051 13.5 15.1399V4.13989C13.5 3.07903 13.0786 2.06161 12.3284 1.31147C11.5783 0.56132 10.5609 0.139893 9.5 0.139893H2.5C1.96957 0.139893 1.46086 0.350606 1.08579 0.725679C0.710714 1.10075 0.5 1.60946 0.5 2.13989V18.1399C0.5 18.6703 0.710714 19.179 1.08579 19.5541C1.46086 19.9292 1.96957 20.1399 2.5 20.1399H10.5C11.2956 20.1399 12.0587 20.456 12.6213 21.0186C13.1839 21.5812 13.5 22.3442 13.5 23.1399C13.5 23.4051 13.6054 23.6595 13.7929 23.847C13.9804 24.0345 14.2348 24.1399 14.5 24.1399C14.7652 24.1399 15.0196 24.0345 15.2071 23.847C15.3946 23.6595 15.5 23.4051 15.5 23.1399C15.5 22.3442 15.8161 21.5812 16.3787 21.0186C16.9413 20.456 17.7044 20.1399 18.5 20.1399H26.5C27.0304 20.1399 27.5391 19.9292 27.9142 19.5541C28.2893 19.179 28.5 18.6703 28.5 18.1399V2.13989C28.5 1.60946 28.2893 1.10075 27.9142 0.725679C27.5391 0.350606 27.0304 0.139893 26.5 0.139893ZM24.5 15.1399H19.5C19.2348 15.1399 18.9804 15.0345 18.7929 14.847C18.6054 14.6595 18.5 14.4051 18.5 14.1399C18.5 13.8747 18.6054 13.6203 18.7929 13.4328C18.9804 13.2452 19.2348 13.1399 19.5 13.1399H24.5C24.7652 13.1399 25.0196 13.2452 25.2071 13.4328C25.3946 13.6203 25.5 13.8747 25.5 14.1399C25.5 14.4051 25.3946 14.6595 25.2071 14.847C25.0196 15.0345 24.7652 15.1399 24.5 15.1399ZM24.5 11.1399H19.5C19.2348 11.1399 18.9804 11.0345 18.7929 10.847C18.6054 10.6595 18.5 10.4051 18.5 10.1399C18.5 9.87468 18.6054 9.62032 18.7929 9.43279C18.9804 9.24525 19.2348 9.13989 19.5 9.13989H24.5C24.7652 9.13989 25.0196 9.24525 25.2071 9.43279C25.3946 9.62032 25.5 9.87468 25.5 10.1399C25.5 10.4051 25.3946 10.6595 25.2071 10.847C25.0196 11.0345 24.7652 11.1399 24.5 11.1399ZM24.5 7.13989H19.5C19.2348 7.13989 18.9804 7.03454 18.7929 6.847C18.6054 6.65946 18.5 6.40511 18.5 6.13989C18.5 5.87468 18.6054 5.62032 18.7929 5.43279C18.9804 5.24525 19.2348 5.13989 19.5 5.13989H24.5C24.7652 5.13989 25.0196 5.24525 25.2071 5.43279C25.3946 5.62032 25.5 5.87468 25.5 6.13989C25.5 6.40511 25.3946 6.65946 25.2071 6.847C25.0196 7.03454 24.7652 7.13989 24.5 7.13989Z" fill="#495B57"/>
</svg>
