<svg width="37" height="25" viewBox="0 0 37 25" fill="none" xmlns="http://www.w3.org/2000/svg">
<path d="M30.5007 12.7733C30.5007 12.8321 30.5007 12.8887 30.5007 12.9487C30.4615 14.5942 29.851 16.4658 27.2697 16.4658C24.5996 16.4658 24.0388 14.458 24.0388 12.7733V8.15763C24.0391 8.03108 24.0133 7.90582 23.9631 7.78964C23.913 7.67346 23.8395 7.56884 23.7471 7.48227C23.6548 7.3957 23.5457 7.32903 23.4266 7.2864C23.3074 7.24378 23.1808 7.22611 23.0545 7.2345C22.8167 7.25492 22.5955 7.36476 22.4355 7.54186C22.2756 7.71897 22.1887 7.95016 22.1925 8.18878V8.65035C21.3592 7.90345 20.3191 7.42651 19.2094 7.28235C18.0996 7.13819 16.9722 7.33357 15.9757 7.84275C14.9791 8.35193 14.1602 9.15103 13.6268 10.1348C13.0934 11.1186 12.8704 12.2408 12.9874 13.3538C13.1043 14.4667 13.5556 15.5182 14.2819 16.3695C15.0082 17.2209 15.9753 17.8324 17.0559 18.1233C18.1365 18.4142 19.2799 18.371 20.3354 17.9993C21.391 17.6277 22.3092 16.945 22.9691 16.0412C23.0845 16.243 23.2148 16.4358 23.3591 16.6181C23.9788 17.3889 25.1592 18.3121 27.2697 18.3121C27.6262 18.3132 27.9821 18.2843 28.3336 18.2255C28.4206 18.211 28.5098 18.2217 28.5908 18.2563C28.6719 18.2909 28.7413 18.348 28.7909 18.4208C28.8406 18.4936 28.8683 18.5791 28.8709 18.6672C28.8735 18.7553 28.8509 18.8423 28.8056 18.9179C27.7207 20.7378 26.1735 22.2381 24.3211 23.2667C22.4687 24.2952 20.3772 24.8152 18.2588 24.774C11.9377 24.647 6.75317 19.5652 6.50854 13.2475C6.44597 11.6532 6.70198 10.0623 7.26159 8.56806C7.8212 7.0738 8.67317 5.70615 9.76767 4.5451C10.8622 3.38406 12.1772 2.45294 13.6359 1.80621C15.0945 1.15948 16.6675 0.810124 18.2628 0.778589C19.8581 0.747055 21.4437 1.03397 22.9268 1.62255C24.4098 2.21113 25.7607 3.08956 26.9002 4.20644C28.0397 5.32333 28.9451 6.65624 29.5633 8.12721C30.1815 9.59818 30.5002 11.1777 30.5007 12.7733ZM14.8075 12.7733C14.8075 13.5036 15.024 14.2175 15.4298 14.8247C15.8355 15.432 16.4122 15.9052 17.0869 16.1847C17.7617 16.4642 18.5041 16.5373 19.2204 16.3948C19.9367 16.2524 20.5946 15.9007 21.111 15.3843C21.6274 14.8679 21.9791 14.2099 22.1216 13.4937C22.264 12.7774 22.1909 12.0349 21.9114 11.3602C21.632 10.6855 21.1587 10.1088 20.5515 9.70306C19.9442 9.29732 19.2303 9.08076 18.5 9.08076C17.5207 9.08076 16.5815 9.46979 15.889 10.1623C15.1965 10.8548 14.8075 11.794 14.8075 12.7733Z" fill="#495B57"/>
</svg>
