<svg width="37" height="24" viewBox="0 0 37 24" fill="none" xmlns="http://www.w3.org/2000/svg">
<path d="M26.2428 4.13989H6.60644C5.40145 4.13989 4.42462 5.11673 4.42462 6.32171V21.5944C4.42462 22.7994 5.40145 23.7763 6.60644 23.7763H26.2428C27.4478 23.7763 28.4246 22.7994 28.4246 21.5944V6.32171C28.4246 5.11673 27.4478 4.13989 26.2428 4.13989Z" fill="#495B57"/>
<path d="M30.3936 0.139893H9.66629C9.37696 0.139893 9.09948 0.254828 8.8949 0.459413C8.69031 0.663998 8.57538 0.941475 8.57538 1.2308C8.57538 1.52013 8.69031 1.79761 8.8949 2.00219C9.09948 2.20678 9.37696 2.32171 9.66629 2.32171H30.3936V18.6853C30.3936 18.9747 30.5085 19.2522 30.7131 19.4567C30.9177 19.6613 31.1951 19.7763 31.4845 19.7763C31.7738 19.7763 32.0513 19.6613 32.2559 19.4567C32.4604 19.2522 32.5754 18.9747 32.5754 18.6853V2.32171C32.5754 1.74306 32.3455 1.1881 31.9363 0.778932C31.5272 0.369762 30.9722 0.139893 30.3936 0.139893Z" fill="#495B57"/>
</svg>
