<svg width="37" height="25" viewBox="0 0 37 25" fill="none" xmlns="http://www.w3.org/2000/svg">
<path d="M14.0965 6.33499C13.9301 6.16864 13.7981 5.97113 13.708 5.75374C13.6179 5.53636 13.5716 5.30336 13.5716 5.06805C13.5716 4.83275 13.6179 4.59975 13.708 4.38236C13.7981 4.16498 13.9301 3.96746 14.0965 3.80111L17.2325 0.66402C17.569 0.328384 18.0248 0.139893 18.5 0.139893C18.9752 0.139893 19.431 0.328384 19.7675 0.66402L22.9035 3.80111C23.0699 3.96746 23.2019 4.16498 23.292 4.38236C23.3821 4.59975 23.4284 4.83275 23.4284 5.06805C23.4284 5.30336 23.3821 5.53636 23.292 5.75374C23.2019 5.97113 23.0699 6.16864 22.9035 6.33499L19.7675 9.47208C19.431 9.80772 18.9752 9.99621 18.5 9.99621C18.0248 9.99621 17.569 9.80772 17.2325 9.47208L14.0965 6.33499ZM29.9759 10.8724L26.8388 7.73533C26.5025 7.39976 26.0469 7.21129 25.5718 7.21129C25.0968 7.21129 24.6411 7.39976 24.3049 7.73533L21.1678 10.8724C20.8322 11.2088 20.6437 11.6647 20.6437 12.1399C20.6437 12.6151 20.8322 13.0709 21.1678 13.4074L24.3049 16.5445C24.6411 16.88 25.0968 17.0685 25.5718 17.0685C26.0469 17.0685 26.5025 16.88 26.8388 16.5445L29.9759 13.4074C30.3115 13.0709 30.5 12.6151 30.5 12.1399C30.5 11.6647 30.3115 11.2088 29.9759 10.8724ZM15.8333 10.8724L12.6951 7.73533C12.3589 7.39976 11.9032 7.21129 11.4282 7.21129C10.9531 7.21129 10.4975 7.39976 10.1612 7.73533L7.02413 10.8724C6.68849 11.2088 6.5 11.6647 6.5 12.1399C6.5 12.6151 6.68849 13.0709 7.02413 13.4074L10.1612 16.5445C10.4975 16.88 10.9531 17.0685 11.4282 17.0685C11.9032 17.0685 12.3589 16.88 12.6951 16.5445L15.8322 13.4074C16.1678 13.0709 16.3563 12.6151 16.3563 12.1399C16.3563 11.6647 16.1678 11.2088 15.8322 10.8724H15.8333ZM19.7685 14.8077C19.4321 14.4721 18.9763 14.2836 18.5011 14.2836C18.0258 14.2836 17.57 14.4721 17.2336 14.8077L14.0965 17.9448C13.9301 18.1111 13.7981 18.3087 13.708 18.526C13.6179 18.7434 13.5716 18.9764 13.5716 19.2117C13.5716 19.447 13.6179 19.68 13.708 19.8974C13.7981 20.1148 13.9301 20.3123 14.0965 20.4787L17.2325 23.6158C17.569 23.9514 18.0248 24.1399 18.5 24.1399C18.9752 24.1399 19.431 23.9514 19.7675 23.6158L22.9035 20.4787C23.0699 20.3123 23.2019 20.1148 23.292 19.8974C23.3821 19.68 23.4284 19.447 23.4284 19.2117C23.4284 18.9764 23.3821 18.7434 23.292 18.526C23.2019 18.3087 23.0699 18.1111 22.9035 17.9448L19.7685 14.8077Z" fill="#495B57"/>
</svg>
