<svg width="37" height="25" viewBox="0 0 37 25" fill="none" xmlns="http://www.w3.org/2000/svg">
<path d="M30.5 3.17625V22.3762C30.5 23.0128 30.2471 23.6232 29.7971 24.0733C29.347 24.5234 28.7365 24.7762 28.1 24.7762H8.9C8.26348 24.7762 7.65303 24.5234 7.20294 24.0733C6.75286 23.6232 6.5 23.0128 6.5 22.3762V3.17625C6.5 2.53973 6.75286 1.92928 7.20294 1.47919C7.65303 1.0291 8.26348 0.776245 8.9 0.776245H28.1C28.7365 0.776245 29.347 1.0291 29.7971 1.47919C30.2471 1.92928 30.5 2.53973 30.5 3.17625ZM34.1 0.776245C33.7817 0.776245 33.4765 0.902674 33.2515 1.12772C33.0264 1.35276 32.9 1.65799 32.9 1.97625V23.5762C32.9 23.8945 33.0264 24.1997 33.2515 24.4248C33.4765 24.6498 33.7817 24.7762 34.1 24.7762C34.4183 24.7762 34.7235 24.6498 34.9485 24.4248C35.1736 24.1997 35.3 23.8945 35.3 23.5762V1.97625C35.3 1.65799 35.1736 1.35276 34.9485 1.12772C34.7235 0.902674 34.4183 0.776245 34.1 0.776245ZM2.9 0.776245C2.58174 0.776245 2.27652 0.902674 2.05147 1.12772C1.82643 1.35276 1.7 1.65799 1.7 1.97625V23.5762C1.7 23.8945 1.82643 24.1997 2.05147 24.4248C2.27652 24.6498 2.58174 24.7762 2.9 24.7762C3.21826 24.7762 3.52349 24.6498 3.74853 24.4248C3.97357 24.1997 4.1 23.8945 4.1 23.5762V1.97625C4.1 1.65799 3.97357 1.35276 3.74853 1.12772C3.52349 0.902674 3.21826 0.776245 2.9 0.776245Z" fill="#495B57"/>
</svg>
