<svg width="37" height="25" viewBox="0 0 37 25" fill="none" xmlns="http://www.w3.org/2000/svg">
<path d="M24.0385 0.139893H12.9615C11.2484 0.141725 9.60594 0.823081 8.39456 2.03446C7.18319 3.24583 6.50183 4.88829 6.5 6.60143V17.6784C6.50183 19.3915 7.18319 21.034 8.39456 22.2453C9.60594 23.4567 11.2484 24.1381 12.9615 24.1399H24.0385C25.7516 24.1381 27.3941 23.4567 28.6054 22.2453C29.8168 21.034 30.4982 19.3915 30.5 17.6784V6.60143C30.4982 4.88829 29.8168 3.24583 28.6054 2.03446C27.3941 0.823081 25.7516 0.141725 24.0385 0.139893ZM18.5 17.6784C17.4046 17.6784 16.3338 17.3535 15.423 16.745C14.5122 16.1364 13.8023 15.2714 13.3831 14.2594C12.9639 13.2473 12.8543 12.1337 13.068 11.0594C13.2817 9.98504 13.8091 8.99818 14.5837 8.22361C15.3583 7.44904 16.3451 6.92155 17.4195 6.70785C18.4939 6.49415 19.6075 6.60383 20.6195 7.02302C21.6315 7.44221 22.4965 8.15209 23.1051 9.06289C23.7136 9.97368 24.0385 11.0445 24.0385 12.1399C24.0369 13.6083 23.4529 15.0162 22.4146 16.0545C21.3763 17.0928 19.9684 17.6768 18.5 17.6784ZM25.4231 6.60143C25.1492 6.60143 24.8815 6.52023 24.6538 6.36808C24.4261 6.21594 24.2487 5.99969 24.1439 5.74669C24.0391 5.49368 24.0116 5.21528 24.0651 4.94669C24.1185 4.6781 24.2504 4.43139 24.444 4.23774C24.6376 4.0441 24.8844 3.91223 25.153 3.85881C25.4215 3.80538 25.6999 3.8328 25.9529 3.9376C26.206 4.0424 26.4222 4.21987 26.5743 4.44756C26.7265 4.67526 26.8077 4.94296 26.8077 5.21682C26.8077 5.58404 26.6618 5.93622 26.4021 6.19589C26.1425 6.45555 25.7903 6.60143 25.4231 6.60143ZM22.1923 12.1399C22.1923 12.8702 21.9758 13.584 21.57 14.1912C21.1643 14.7984 20.5877 15.2717 19.913 15.5511C19.2383 15.8306 18.4959 15.9037 17.7797 15.7613C17.0634 15.6188 16.4055 15.2671 15.8891 14.7507C15.3728 14.2344 15.0211 13.5765 14.8786 12.8602C14.7362 12.144 14.8093 11.4016 15.0888 10.7269C15.3682 10.0522 15.8415 9.47557 16.4487 9.06985C17.0559 8.66413 17.7697 8.44759 18.5 8.44759C19.4793 8.44759 20.4184 8.83659 21.1109 9.52904C21.8033 10.2215 22.1923 11.1606 22.1923 12.1399Z" fill="#495B57"/>
</svg>
