<svg width="37" height="25" viewBox="0 0 37 25" fill="none" xmlns="http://www.w3.org/2000/svg">
<path d="M30.5 12.1399C30.5 12.5218 30.3483 12.8881 30.0782 13.1581C29.8082 13.4282 29.4419 13.5799 29.06 13.5799H19.94V22.6999C19.94 23.0818 19.7883 23.4481 19.5182 23.7181C19.2482 23.9882 18.8819 24.1399 18.5 24.1399C18.1181 24.1399 17.7518 23.9882 17.4818 23.7181C17.2117 23.4481 17.06 23.0818 17.06 22.6999V13.5799H7.94C7.55809 13.5799 7.19182 13.4282 6.92177 13.1581C6.65171 12.8881 6.5 12.5218 6.5 12.1399C6.5 11.758 6.65171 11.3917 6.92177 11.1217C7.19182 10.8516 7.55809 10.6999 7.94 10.6999H17.06V1.57989C17.06 1.19798 17.2117 0.831711 17.4818 0.561659C17.7518 0.291606 18.1181 0.139893 18.5 0.139893C18.8819 0.139893 19.2482 0.291606 19.5182 0.561659C19.7883 0.831711 19.94 1.19798 19.94 1.57989V10.6999H29.06C29.4419 10.6999 29.8082 10.8516 30.0782 11.1217C30.3483 11.3917 30.5 11.758 30.5 12.1399Z" fill="#495B57"/>
</svg>
