<svg width="37" height="25" viewBox="0 0 37 25" fill="none" xmlns="http://www.w3.org/2000/svg">
<path d="M30.5 0.139893H6.49999C5.92134 0.139893 5.36639 0.369762 4.95722 0.778932C4.54805 1.1881 4.31818 1.74306 4.31818 2.32171V21.9581C4.31818 22.5367 4.54805 23.0917 4.95722 23.5009C5.36639 23.91 5.92134 24.1399 6.49999 24.1399H30.5C31.0786 24.1399 31.6336 23.91 32.0428 23.5009C32.4519 23.0917 32.6818 22.5367 32.6818 21.9581V2.32171C32.6818 1.74306 32.4519 1.1881 32.0428 0.778932C31.6336 0.369762 31.0786 0.139893 30.5 0.139893ZM10.3182 7.77626C9.99453 7.77626 9.67816 7.68029 9.40906 7.50048C9.13996 7.32067 8.93023 7.06511 8.80637 6.7661C8.68252 6.4671 8.65012 6.13808 8.71325 5.82065C8.77639 5.50323 8.93224 5.21166 9.16109 4.98281C9.38994 4.75396 9.68151 4.59811 9.99894 4.53497C10.3164 4.47183 10.6454 4.50424 10.9444 4.62809C11.2434 4.75194 11.499 4.96168 11.6788 5.23078C11.8586 5.49988 11.9545 5.81625 11.9545 6.13989C11.9545 6.57388 11.7821 6.9901 11.4753 7.29698C11.1684 7.60385 10.7522 7.77626 10.3182 7.77626ZM15.7727 7.77626C15.4491 7.77626 15.1327 7.68029 14.8636 7.50048C14.5945 7.32067 14.3848 7.06511 14.2609 6.7661C14.1371 6.4671 14.1047 6.13808 14.1678 5.82065C14.2309 5.50323 14.3868 5.21166 14.6156 4.98281C14.8445 4.75396 15.1361 4.59811 15.4535 4.53497C15.7709 4.47183 16.0999 4.50424 16.3989 4.62809C16.6979 4.75194 16.9535 4.96168 17.1333 5.23078C17.3131 5.49988 17.4091 5.81625 17.4091 6.13989C17.4091 6.57388 17.2367 6.9901 16.9298 7.29698C16.6229 7.60385 16.2067 7.77626 15.7727 7.77626Z" fill="#495B57"/>
</svg>
