<svg width="37" height="25" viewBox="0 0 37 25" fill="none" xmlns="http://www.w3.org/2000/svg">
<path d="M23.2969 5.74522C22.4614 3.78927 20.9762 2.18181 19.0923 1.19458C17.2084 0.207361 15.0414 -0.0990539 12.9576 0.327142C10.8739 0.753337 9.00121 1.886 7.65622 3.53363C6.31124 5.18127 5.57645 7.24279 5.57608 9.36969V16.9856C5.57608 17.414 5.74628 17.8249 6.04925 18.1279C6.35221 18.4309 6.76312 18.6011 7.19157 18.6011H13.7308C14.4512 20.2462 15.635 21.6459 17.1376 22.6295C18.6402 23.6131 20.3967 24.1379 22.1926 24.1399H29.8084C30.2369 24.1399 30.6478 23.9697 30.9508 23.6667C31.2537 23.3638 31.4239 22.9529 31.4239 22.5244V14.9085C31.4235 12.6517 30.5964 10.4733 29.0989 8.78493C27.6015 7.09655 25.5374 6.01519 23.2969 5.74522ZM29.5777 22.2936H22.1926C20.8867 22.2921 19.6044 21.9452 18.476 21.2879C17.3476 20.6307 16.4131 19.6866 15.7675 18.5514C17.0319 18.4202 18.2555 18.0291 19.3615 17.4026C20.4676 16.776 21.4321 15.9276 22.1947 14.9106C22.9573 13.8936 23.5015 12.73 23.793 11.4927C24.0845 10.2554 24.1171 8.97122 23.8888 7.72074C25.5081 8.10288 26.9509 9.02059 27.9834 10.3252C29.0159 11.6298 29.5777 13.2448 29.5777 14.9085V22.2936Z" fill="#495B57"/>
</svg>
