<svg width="37" height="25" viewBox="0 0 37 25" fill="none" xmlns="http://www.w3.org/2000/svg">
<path d="M34.6693 3.21762L25.833 22.854C25.6604 23.2372 25.3809 23.5624 25.0279 23.7905C24.675 24.0186 24.2637 24.1399 23.8434 24.1399H4.31751C3.95319 24.1397 3.59472 24.0483 3.27481 23.874C2.9549 23.6996 2.68373 23.448 2.48604 23.142C2.28835 22.8359 2.17044 22.4853 2.14307 22.122C2.1157 21.7587 2.17973 21.3944 2.32933 21.0622L11.1657 1.4258C11.3383 1.04262 11.6178 0.717432 11.9707 0.489315C12.3237 0.261198 12.735 0.139863 13.1552 0.139893H32.6811C33.0456 0.139867 33.4042 0.231129 33.7243 0.405346C34.0444 0.579564 34.3158 0.831187 34.5136 1.13724C34.7115 1.4433 34.8295 1.79404 34.8569 2.15744C34.8844 2.52084 34.8203 2.88533 34.6707 3.21762H34.6693Z" fill="#495B57"/>
</svg>
