<svg width="15" height="15" viewBox="0 0 15 15" fill="none" xmlns="http://www.w3.org/2000/svg">
<path fill-rule="evenodd" clip-rule="evenodd" d="M13.162 5.80168H9.48611V2.12579C9.48611 1.11072 8.66323 0.287842 7.64816 0.287842C6.6331 0.287842 5.81022 1.11072 5.81022 2.12579V5.80168H2.13433C1.11926 5.80168 0.296387 6.62455 0.296387 7.63962C0.296387 8.65469 1.11926 9.47756 2.13433 9.47756H5.81022V13.1535C5.81022 14.1685 6.6331 14.9914 7.64816 14.9914C8.66323 14.9914 9.48611 14.1685 9.48611 13.1535V9.47756H13.162C14.1771 9.47756 14.9999 8.65469 14.9999 7.63962C14.9999 6.62455 14.1771 5.80168 13.162 5.80168Z" fill="#D9D9D9"/>
</svg>
