<svg width="33" height="33" viewBox="0 0 33 33" fill="none" xmlns="http://www.w3.org/2000/svg">
<path fill-rule="evenodd" clip-rule="evenodd" d="M16.5807 0.559509C7.98141 0.559509 1 7.54092 1 16.1396C1 24.7389 7.98141 31.7203 16.5807 31.7203C25.1799 31.7203 32.1614 24.7389 32.1614 16.1396C32.1614 7.54092 25.1799 0.559509 16.5807 0.559509ZM16.5807 1.91006C24.4344 1.91006 30.8109 8.28658 30.8109 16.1397C30.8109 23.9934 24.4344 30.37 16.5807 30.37C8.72696 30.37 2.35044 23.9934 2.35044 16.1397C2.35044 8.28658 8.72696 1.91006 16.5807 1.91006Z" fill="#495B57" stroke="#495B57" stroke-width="0.934841"/>
<path fill-rule="evenodd" clip-rule="evenodd" d="M8.94053 16.6169L13.7157 21.3922C13.9792 21.6558 14.4072 21.6558 14.6706 21.3922L24.2209 11.8418C24.4846 11.5782 24.4846 11.1504 24.2209 10.8868C23.9575 10.6233 23.5295 10.6233 23.2661 10.8868L14.1933 19.9595L9.89562 15.6619C9.63198 15.3984 9.20419 15.3984 8.94053 15.6619C8.67689 15.9255 8.67689 16.3533 8.94053 16.6169Z" fill="#495B57" stroke="#495B57" stroke-width="0.934841"/>
</svg>
