<svg width="37" height="25" viewBox="0 0 37 25" fill="none" xmlns="http://www.w3.org/2000/svg">
<path d="M30.5 0.139893H6.49999C5.92134 0.139893 5.36639 0.369762 4.95722 0.778932C4.54805 1.1881 4.31818 1.74306 4.31818 2.32171V21.9581C4.31818 22.5367 4.54805 23.0917 4.95722 23.5009C5.36639 23.91 5.92134 24.1399 6.49999 24.1399H30.5C31.0786 24.1399 31.6336 23.91 32.0428 23.5009C32.4519 23.0917 32.6818 22.5367 32.6818 21.9581V2.32171C32.6818 1.74306 32.4519 1.1881 32.0428 0.778932C31.6336 0.369762 31.0786 0.139893 30.5 0.139893ZM30.5 2.32171V6.68535H6.49999V2.32171H30.5Z" fill="#495B57"/>
</svg>
