<svg width="37" height="25" viewBox="0 0 37 25" fill="none" xmlns="http://www.w3.org/2000/svg">
<path d="M23.6429 0.139893H13.3571C12.6752 0.139893 12.0211 0.41081 11.5389 0.893047C11.0566 1.37528 10.7857 2.02934 10.7857 2.71132V21.5685C10.7857 22.2505 11.0566 22.9045 11.5389 23.3867C12.0211 23.869 12.6752 24.1399 13.3571 24.1399H23.6429C24.3248 24.1399 24.9789 23.869 25.4611 23.3867C25.9434 22.9045 26.2143 22.2505 26.2143 21.5685V2.71132C26.2143 2.02934 25.9434 1.37528 25.4611 0.893047C24.9789 0.41081 24.3248 0.139893 23.6429 0.139893ZM21.9286 5.28275H15.0714C14.8441 5.28275 14.6261 5.19244 14.4653 5.0317C14.3046 4.87095 14.2143 4.65294 14.2143 4.42561C14.2143 4.19828 14.3046 3.98026 14.4653 3.81952C14.6261 3.65877 14.8441 3.56846 15.0714 3.56846H21.9286C22.1559 3.56846 22.3739 3.65877 22.5347 3.81952C22.6954 3.98026 22.7857 4.19828 22.7857 4.42561C22.7857 4.65294 22.6954 4.87095 22.5347 5.0317C22.3739 5.19244 22.1559 5.28275 21.9286 5.28275Z" fill="#495B57"/>
</svg>
