<svg width="37" height="25" viewBox="0 0 37 25" fill="none" xmlns="http://www.w3.org/2000/svg">
<path d="M30.5007 12.1369C30.5007 12.1958 30.5007 12.2523 30.5007 12.3123C30.4615 13.9578 29.851 15.8294 27.2697 15.8294C24.5996 15.8294 24.0388 13.8216 24.0388 12.1369V7.52128C24.0391 7.39473 24.0133 7.26947 23.9631 7.15329C23.913 7.03711 23.8395 6.93248 23.7472 6.84591C23.6548 6.75934 23.5457 6.69268 23.4266 6.65005C23.3074 6.60743 23.1808 6.58976 23.0545 6.59815C22.8167 6.61856 22.5955 6.7284 22.4355 6.90551C22.2756 7.08262 22.1887 7.3138 22.1925 7.55243V8.014C21.3592 7.2671 20.3191 6.79016 19.2094 6.646C18.0996 6.50184 16.9722 6.69721 15.9757 7.2064C14.9792 7.71558 14.1602 8.51468 13.6268 9.49844C13.0934 10.4822 12.8704 11.6045 12.9874 12.7174C13.1043 13.8304 13.5556 14.8818 14.2819 15.7332C15.0082 16.5846 15.9753 17.196 17.0559 17.487C18.1365 17.7779 19.2799 17.7347 20.3354 17.363C21.391 16.9913 22.3092 16.3086 22.9691 15.4048C23.0845 15.6066 23.2148 15.7995 23.3591 15.9818C23.9788 16.7526 25.1592 17.6757 27.2697 17.6757C27.6262 17.6769 27.9821 17.6479 28.3336 17.5892C28.4206 17.5747 28.5098 17.5854 28.5908 17.62C28.6719 17.6546 28.7413 17.7117 28.7909 17.7845C28.8406 17.8573 28.8683 17.9428 28.8709 18.0308C28.8735 18.1189 28.8509 18.2059 28.8056 18.2815C27.7207 20.1014 26.1735 21.6018 24.3211 22.6303C22.4687 23.6588 20.3772 24.1789 18.2588 24.1376C11.9377 24.0107 6.75317 18.9289 6.50854 12.6112C6.44597 11.0168 6.70198 9.42596 7.26159 7.9317C7.8212 6.43745 8.67318 5.0698 9.76768 3.90875C10.8622 2.74771 12.1772 1.81658 13.6359 1.16985C15.0945 0.523123 16.6675 0.173771 18.2628 0.142237C19.8581 0.110702 21.4437 0.397618 22.9268 0.986198C24.4098 1.57478 25.7607 2.4532 26.9002 3.57009C28.0397 4.68697 28.9451 6.01989 29.5633 7.49086C30.1815 8.96183 30.5002 10.5413 30.5007 12.1369ZM14.8075 12.1369C14.8075 12.8672 15.024 13.5811 15.4298 14.1884C15.8355 14.7956 16.4122 15.2689 17.0869 15.5484C17.7617 15.8278 18.5041 15.901 19.2204 15.7585C19.9367 15.616 20.5946 15.2643 21.111 14.7479C21.6274 14.2315 21.9791 13.5736 22.1216 12.8573C22.264 12.141 22.1909 11.3986 21.9114 10.7239C21.632 10.0491 21.1587 9.47245 20.5515 9.06671C19.9442 8.66097 19.2303 8.44441 18.5 8.44441C17.5207 8.44441 16.5815 8.83344 15.889 9.52592C15.1965 10.2184 14.8075 11.1576 14.8075 12.1369Z" fill="#495B57"/>
</svg>
