<svg width="1100" height="40" viewBox="0 0 1100 40" fill="none" xmlns="http://www.w3.org/2000/svg">
<circle cx="471" cy="20" r="20" fill="url(#paint0_linear_2812_2803)"/>
<path fill-rule="evenodd" clip-rule="evenodd" d="M485.778 19.978C485.778 17.4958 483.766 15.4836 481.284 15.4836L468.402 15.4836L470.997 19.9782L479.396 19.9782C480.637 19.9782 481.643 20.9843 481.643 22.2254C481.643 23.4665 480.637 24.4726 479.396 24.4726L473.592 24.4726L476.187 28.9668L481.284 28.9668C483.766 28.9668 485.778 26.9546 485.778 24.4724L485.778 19.978Z" fill="#101012"/>
<path fill-rule="evenodd" clip-rule="evenodd" d="M456.213 20.0002C456.213 22.4824 458.226 24.4946 460.708 24.4946L473.589 24.4946L470.994 20.0002L462.596 20.0002C461.354 20.0002 460.348 18.9941 460.348 17.753C460.348 16.5119 461.354 15.5058 462.596 15.5058L468.399 15.5058L465.804 11.0115L460.708 11.0115C458.226 11.0115 456.213 13.0237 456.213 15.5059L456.213 20.0002Z" fill="#101012"/>
<path d="M508.447 27.4228C502.751 27.4228 499.278 25.8522 499.278 22.1946V22.0655H504.502V22.5173C504.502 23.4855 504.946 23.7437 508.447 23.7437C511.615 23.7437 511.948 23.5501 511.948 22.9046C511.948 22.3882 511.587 22.1731 510.059 22.0225L504.224 21.4201C500.751 21.0543 499 19.6128 499 17.2892C499 14.9871 501.306 12.5774 508.031 12.5774C513.949 12.5774 516.783 14.5783 516.783 17.8055V17.9346H511.559V17.6119C511.559 16.5792 510.976 16.2349 507.475 16.2349C504.807 16.2349 504.224 16.5146 504.224 17.1386C504.224 17.5904 504.557 17.8055 505.558 17.9131L511.393 18.5801C515.95 19.0964 517.172 20.9037 517.172 22.754C517.172 25.2282 514.727 27.4228 508.447 27.4228Z" fill="url(#paint1_linear_2812_2803)"/>
<path d="M529.804 27.4228C523.33 27.4228 519.523 24.4967 519.523 20.0001C519.523 15.5034 523.33 12.5774 529.804 12.5774C536.056 12.5774 539.807 14.8795 539.807 18.7307V19.0964H533.972V18.7307C533.972 17.0955 532.971 16.4501 529.887 16.4501C526.108 16.4501 525.08 17.1386 525.08 20.0001C525.08 22.8616 526.108 23.5501 529.887 23.5501C532.971 23.5501 533.972 22.9046 533.972 21.2695V20.9037H539.807V21.2695C539.807 25.1206 536.056 27.4228 529.804 27.4228Z" fill="url(#paint2_linear_2812_2803)"/>
<path d="M554.91 27.2076H549.686V22.6249L541.322 12.7925H547.796L550.603 16.2134L552.187 18.2358H552.548L554.132 16.2134L556.938 12.7925H563.44L554.91 22.6464V27.2076Z" fill="url(#paint3_linear_2812_2803)"/>
<path d="M576.628 27.2076H571.404V16.4286H564.819V12.7925H583.186V16.4286H576.628V27.2076Z" fill="url(#paint4_linear_2812_2803)"/>
<path d="M591.06 27.2076H585.837V12.7925H591.06V18.1498H599.73V12.7925H604.954V27.2076H599.73V21.7858H591.06V27.2076Z" fill="url(#paint5_linear_2812_2803)"/>
<path d="M618.042 27.4228C611.568 27.4228 607.734 24.4967 607.734 20.0001C607.734 15.5034 611.568 12.5774 618.042 12.5774C624.683 12.5774 628.462 15.5034 628.462 20.0001C628.462 24.4967 624.683 27.4228 618.042 27.4228ZM618.042 23.5501C621.821 23.5501 622.905 22.8616 622.905 20.0001C622.905 17.1386 621.821 16.4501 618.042 16.4501C614.263 16.4501 613.291 17.1386 613.291 20.0001C613.291 22.8616 614.263 23.5501 618.042 23.5501Z" fill="url(#paint6_linear_2812_2803)"/>
<path d="M640.275 27.4228C634.579 27.4228 631.106 25.8522 631.106 22.1946V22.0655H636.329V22.5173C636.329 23.4855 636.774 23.7437 640.275 23.7437C643.443 23.7437 643.776 23.5501 643.776 22.9046C643.776 22.3882 643.415 22.1731 641.887 22.0225L636.052 21.4201C632.578 21.0543 630.828 19.6128 630.828 17.2892C630.828 14.9871 633.134 12.5774 639.858 12.5774C645.777 12.5774 648.611 14.5783 648.611 17.8055V17.9346H643.387V17.6119C643.387 16.5792 642.804 16.2349 639.303 16.2349C636.635 16.2349 636.052 16.5146 636.052 17.1386C636.052 17.5904 636.385 17.8055 637.385 17.9131L643.22 18.5801C647.777 19.0964 649 20.9037 649 22.754C649 25.2282 646.555 27.4228 640.275 27.4228Z" fill="url(#paint7_linear_2812_2803)"/>
<defs>
<linearGradient id="paint0_linear_2812_2803" x1="471" y1="0" x2="471" y2="40" gradientUnits="userSpaceOnUse">
<stop stop-color="white"/>
<stop offset="1" stop-color="#D9D9D9"/>
</linearGradient>
<linearGradient id="paint1_linear_2812_2803" x1="574" y1="12.5774" x2="574" y2="27.4228" gradientUnits="userSpaceOnUse">
<stop stop-color="white"/>
<stop offset="1" stop-color="#D9D9D9"/>
</linearGradient>
<linearGradient id="paint2_linear_2812_2803" x1="574" y1="12.5774" x2="574" y2="27.4228" gradientUnits="userSpaceOnUse">
<stop stop-color="white"/>
<stop offset="1" stop-color="#D9D9D9"/>
</linearGradient>
<linearGradient id="paint3_linear_2812_2803" x1="574" y1="12.5774" x2="574" y2="27.4228" gradientUnits="userSpaceOnUse">
<stop stop-color="white"/>
<stop offset="1" stop-color="#D9D9D9"/>
</linearGradient>
<linearGradient id="paint4_linear_2812_2803" x1="574" y1="12.5774" x2="574" y2="27.4228" gradientUnits="userSpaceOnUse">
<stop stop-color="white"/>
<stop offset="1" stop-color="#D9D9D9"/>
</linearGradient>
<linearGradient id="paint5_linear_2812_2803" x1="574" y1="12.5774" x2="574" y2="27.4228" gradientUnits="userSpaceOnUse">
<stop stop-color="white"/>
<stop offset="1" stop-color="#D9D9D9"/>
</linearGradient>
<linearGradient id="paint6_linear_2812_2803" x1="574" y1="12.5774" x2="574" y2="27.4228" gradientUnits="userSpaceOnUse">
<stop stop-color="white"/>
<stop offset="1" stop-color="#D9D9D9"/>
</linearGradient>
<linearGradient id="paint7_linear_2812_2803" x1="574" y1="12.5774" x2="574" y2="27.4228" gradientUnits="userSpaceOnUse">
<stop stop-color="white"/>
<stop offset="1" stop-color="#D9D9D9"/>
</linearGradient>
</defs>
</svg>
