<svg width="350" height="30" viewBox="0 0 350 30" fill="none" xmlns="http://www.w3.org/2000/svg">
<circle cx="111" cy="15" r="15" fill="url(#paint0_linear_2816_3025)"/>
<path fill-rule="evenodd" clip-rule="evenodd" d="M122.083 14.9836C122.083 13.1219 120.574 11.6128 118.713 11.6128L109.052 11.6128L110.998 14.9837L117.297 14.9837C118.228 14.9837 118.982 15.7383 118.982 16.6691C118.982 17.5999 118.228 18.3545 117.297 18.3545L112.944 18.3545L114.89 21.7252L118.713 21.7252C120.574 21.7252 122.083 20.216 122.083 18.3544L122.083 14.9836Z" fill="#101012"/>
<path fill-rule="evenodd" clip-rule="evenodd" d="M99.9101 15.0003C99.9101 16.8619 101.419 18.3711 103.281 18.3711L112.942 18.3711L110.996 15.0002L104.697 15.0002C103.766 15.0002 103.011 14.2456 103.011 13.3148C103.011 12.384 103.766 11.6294 104.697 11.6294L109.049 11.6294L107.103 8.25874L103.281 8.25874C101.419 8.25874 99.9101 9.76789 99.9101 11.6295L99.9101 15.0003Z" fill="#101012"/>
<path d="M141.558 20.9381C137.001 20.9381 134.222 19.6816 134.222 16.7555V16.6523H138.401V17.0137C138.401 17.7883 138.757 17.9948 141.558 17.9948C144.092 17.9948 144.359 17.8399 144.359 17.3235C144.359 16.9104 144.07 16.7383 142.847 16.6178L138.179 16.1359C135.4 15.8433 134 14.6901 134 12.8312C134 10.9895 135.845 9.06177 141.224 9.06177C145.959 9.06177 148.227 10.6625 148.227 13.2443V13.3476H144.048V13.0894C144.048 12.2632 143.581 11.9878 140.78 11.9878C138.646 11.9878 138.179 12.2116 138.179 12.7107C138.179 13.0722 138.446 13.2443 139.246 13.3303L143.914 13.8639C147.56 14.277 148.538 15.7228 148.538 17.203C148.538 19.1824 146.582 20.9381 141.558 20.9381Z" fill="url(#paint1_linear_2816_3025)"/>
<path d="M158.643 20.9381C153.464 20.9381 150.418 18.5972 150.418 14.9999C150.418 11.4026 153.464 9.06177 158.643 9.06177C163.645 9.06177 166.645 10.9035 166.645 13.9844V14.277H161.977V13.9844C161.977 12.6763 161.177 12.1599 158.71 12.1599C155.687 12.1599 154.864 12.7107 154.864 14.9999C154.864 17.2891 155.687 17.8399 158.71 17.8399C161.177 17.8399 161.977 17.3235 161.977 16.0154V15.7228H166.645V16.0154C166.645 19.0964 163.645 20.9381 158.643 20.9381Z" fill="url(#paint2_linear_2816_3025)"/>
<path d="M178.728 20.7659H174.549V17.0998L167.858 9.23389H173.037L175.282 11.9706L176.549 13.5885H176.838L178.105 11.9706L180.35 9.23389H185.552L178.728 17.117V20.7659Z" fill="url(#paint3_linear_2816_3025)"/>
<path d="M196.102 20.7659H191.923V12.1427H186.655V9.23389H201.349V12.1427H196.102V20.7659Z" fill="url(#paint4_linear_2816_3025)"/>
<path d="M207.648 20.7659H203.469V9.23389H207.648V13.5197H214.584V9.23389H218.763V20.7659H214.584V16.4285H207.648V20.7659Z" fill="url(#paint5_linear_2816_3025)"/>
<path d="M229.234 20.9381C224.054 20.9381 220.987 18.5972 220.987 14.9999C220.987 11.4026 224.054 9.06177 229.234 9.06177C234.547 9.06177 237.57 11.4026 237.57 14.9999C237.57 18.5972 234.547 20.9381 229.234 20.9381ZM229.234 17.8399C232.257 17.8399 233.124 17.2891 233.124 14.9999C233.124 12.7107 232.257 12.1599 229.234 12.1599C226.211 12.1599 225.433 12.7107 225.433 14.9999C225.433 17.2891 226.211 17.8399 229.234 17.8399Z" fill="url(#paint6_linear_2816_3025)"/>
<path d="M247.02 20.9381C242.463 20.9381 239.684 19.6816 239.684 16.7555V16.6523H243.864V17.0137C243.864 17.7883 244.219 17.9948 247.02 17.9948C249.554 17.9948 249.821 17.8399 249.821 17.3235C249.821 16.9104 249.532 16.7383 248.309 16.6178L243.641 16.1359C240.863 15.8433 239.462 14.6901 239.462 12.8312C239.462 10.9895 241.307 9.06177 246.687 9.06177C251.421 9.06177 253.689 10.6625 253.689 13.2443V13.3476H249.51V13.0894C249.51 12.2632 249.043 11.9878 246.242 11.9878C244.108 11.9878 243.641 12.2116 243.641 12.7107C243.641 13.0722 243.908 13.2443 244.708 13.3303L249.376 13.8639C253.022 14.277 254 15.7228 254 17.203C254 19.1824 252.044 20.9381 247.02 20.9381Z" fill="url(#paint7_linear_2816_3025)"/>
<defs>
<linearGradient id="paint0_linear_2816_3025" x1="111" y1="0" x2="111" y2="30" gradientUnits="userSpaceOnUse">
<stop stop-color="white"/>
<stop offset="1" stop-color="#D9D9D9"/>
</linearGradient>
<linearGradient id="paint1_linear_2816_3025" x1="194" y1="9.06177" x2="194" y2="20.9381" gradientUnits="userSpaceOnUse">
<stop stop-color="white"/>
<stop offset="1" stop-color="#D9D9D9"/>
</linearGradient>
<linearGradient id="paint2_linear_2816_3025" x1="194" y1="9.06177" x2="194" y2="20.9381" gradientUnits="userSpaceOnUse">
<stop stop-color="white"/>
<stop offset="1" stop-color="#D9D9D9"/>
</linearGradient>
<linearGradient id="paint3_linear_2816_3025" x1="194" y1="9.06177" x2="194" y2="20.9381" gradientUnits="userSpaceOnUse">
<stop stop-color="white"/>
<stop offset="1" stop-color="#D9D9D9"/>
</linearGradient>
<linearGradient id="paint4_linear_2816_3025" x1="194" y1="9.06177" x2="194" y2="20.9381" gradientUnits="userSpaceOnUse">
<stop stop-color="white"/>
<stop offset="1" stop-color="#D9D9D9"/>
</linearGradient>
<linearGradient id="paint5_linear_2816_3025" x1="194" y1="9.06177" x2="194" y2="20.9381" gradientUnits="userSpaceOnUse">
<stop stop-color="white"/>
<stop offset="1" stop-color="#D9D9D9"/>
</linearGradient>
<linearGradient id="paint6_linear_2816_3025" x1="194" y1="9.06177" x2="194" y2="20.9381" gradientUnits="userSpaceOnUse">
<stop stop-color="white"/>
<stop offset="1" stop-color="#D9D9D9"/>
</linearGradient>
<linearGradient id="paint7_linear_2816_3025" x1="194" y1="9.06177" x2="194" y2="20.9381" gradientUnits="userSpaceOnUse">
<stop stop-color="white"/>
<stop offset="1" stop-color="#D9D9D9"/>
</linearGradient>
</defs>
</svg>
