<svg width="171" height="104" viewBox="0 0 171 104" fill="none" xmlns="http://www.w3.org/2000/svg">
<path d="M112.356 13.3152C113.982 14.3159 115.358 15.6921 116.359 17.4434C116.734 18.0689 117.11 18.3191 117.86 18.3191C123.489 18.9446 129.119 19.9453 134.623 21.3214C134.749 21.3214 134.873 21.3214 134.999 21.4465C135.248 21.5717 135.624 21.5717 135.498 21.9469C135.374 22.1971 134.999 22.072 134.749 22.072C131.245 21.5717 127.867 21.1963 124.365 21.0712C118.11 20.696 111.98 20.696 105.726 21.0712C102.473 21.1963 99.2207 21.3214 95.9682 21.6967C83.9588 22.8226 72.1996 24.8241 61.066 29.4527C56.3124 31.3292 51.934 33.8311 48.4312 37.584C44.9286 41.3369 43.9277 46.0906 46.805 51.5948C48.6814 55.0976 51.3085 57.8497 54.1858 60.3517C54.8112 60.852 54.8112 60.2266 54.8112 59.9763C55.812 56.4737 56.6877 52.8459 57.6884 49.3431C59.0645 43.964 60.5657 38.5848 61.9417 33.2056C62.0669 32.7053 62.3171 32.4551 62.8174 32.2049C68.4468 29.703 74.4514 27.8264 80.4561 26.4504C81.0816 26.3253 81.0816 26.4504 80.9565 26.9507C80.331 29.3276 79.7056 31.7044 79.0801 34.0813C78.9549 34.7068 78.9549 34.8319 79.5804 34.8319C83.8337 34.8319 88.0871 34.8319 92.3403 34.7068C94.8423 34.5817 97.3442 34.0813 99.0955 32.0798C100.347 30.8288 100.722 29.2025 100.472 27.4512C100.221 25.5747 98.8453 24.574 97.0941 24.0736C96.9689 24.0736 96.7187 23.9484 96.5936 23.6983C98.345 23.5731 100.221 23.3229 101.973 23.1979C106.977 22.9477 112.106 22.6975 117.11 22.5724C117.735 22.5724 117.985 22.6975 118.11 23.4481C118.611 30.4535 114.858 36.4581 107.852 39.5855C106.601 40.0859 105.35 40.5864 103.724 40.9616C105.1 41.4621 106.226 41.9624 107.227 42.588C111.855 45.4651 113.857 49.7184 113.357 55.0976C112.731 62.7286 108.353 67.3571 101.597 70.2344C96.5936 72.361 91.2145 73.1116 85.8353 73.2366C78.5797 73.3618 71.3241 73.2366 63.9433 73.3618C59.8151 73.3618 55.812 73.3618 51.6838 73.4868C50.9332 73.4868 50.8081 73.3618 51.0583 72.6111C51.8089 69.859 52.4344 67.2321 53.1849 64.4798C53.3101 63.8544 53.1849 63.6043 52.5594 63.2289C47.3054 60.727 42.4267 57.8497 38.4235 53.4714C36.1718 50.9694 34.2953 48.2172 33.7949 44.8396C33.0443 40.5864 34.4204 36.9586 37.1725 33.706C39.6744 30.8288 42.927 28.8273 46.1795 27.0759C51.6838 24.0736 57.6884 22.072 63.8182 20.696C64.5688 20.5708 64.944 20.1955 65.0692 19.4449C65.1942 18.4442 65.5695 17.4434 65.8197 16.5677C66.0699 16.5677 66.1951 16.3175 66.3201 16.0673C66.8206 14.0657 67.3209 12.1893 67.8213 10.1878C67.9465 9.56229 68.1966 9.18701 68.9472 9.18701C70.5734 9.18701 72.3248 9.18701 73.951 9.18701C82.958 9.81249 91.5897 9.06191 100.221 9.93759C101.723 10.0627 103.224 10.3129 104.85 10.5631C106.977 10.9384 108.853 11.6889 110.73 12.5646C111.105 12.6897 111.355 12.9399 111.73 12.9399C111.855 13.3152 112.106 13.3152 112.356 13.3152ZM79.8306 59.2258C81.2067 59.2258 82.4577 59.2258 83.8337 59.2258C85.2098 59.2258 86.4607 59.2258 87.8369 59.1008C90.3388 58.8506 92.5906 58.2251 94.3418 56.2235C97.0939 53.0961 95.843 48.8427 91.8399 47.842C90.714 47.5918 89.5881 47.3416 88.4623 47.3416C84.3341 47.3416 80.331 47.3416 76.2028 47.3416C75.7024 47.3416 75.4522 47.4667 75.3271 48.0922C74.4514 51.5948 73.4507 55.0976 72.4498 58.6003C72.3248 59.2258 72.4498 59.3509 72.9503 59.3509C75.3271 59.2258 77.5788 59.2258 79.8306 59.2258Z" fill="#D9D9D9"/>
<path d="M19.784 88.1231C19.909 88.2483 19.909 88.3733 19.909 88.3733C22.0358 89.3742 21.7856 92.6266 19.5338 93.7525C18.533 94.2529 17.5323 94.503 16.4064 94.503C14.1546 94.503 11.7778 94.503 9.52603 94.503C9.02565 94.503 8.90056 94.378 9.02565 93.8775C10.0264 89.9996 11.1523 86.1216 12.1531 82.2436C12.2782 81.8682 12.2782 81.7432 12.7786 81.7432C15.0303 81.7432 17.1569 81.6181 19.4087 81.8682C21.7856 82.2436 22.9115 84.2451 21.9106 86.2467C21.5354 87.2474 20.6597 87.6228 19.784 88.1231ZM15.0303 91.6258C15.6558 91.6258 16.4064 91.7509 17.1569 91.3756C17.6573 91.1254 17.9076 90.7502 17.9076 90.1247C17.7824 89.4992 17.2821 89.3742 16.7817 89.249C16.0311 89.249 15.2805 89.249 14.53 89.249C14.0295 89.249 13.7793 89.3742 13.6543 89.8745C13.2789 91.6258 13.1538 91.6258 15.0303 91.6258ZM16.0311 86.8721C16.6566 86.8721 17.4071 86.8721 18.0326 86.6219C18.533 86.3717 18.7832 86.1216 18.7832 85.4961C18.7832 84.8707 18.408 84.6205 17.7824 84.6205C17.1569 84.4953 16.5314 84.6204 15.7809 84.4953C15.1554 84.3702 14.9052 84.6205 14.7802 85.2459C14.53 86.8721 14.53 86.8721 16.0311 86.8721Z" fill="#D9D9D9"/>
<path d="M110.479 89.1242C110.855 87.6231 111.23 86.2471 111.605 84.9961C111.73 84.3705 111.981 84.2455 112.606 84.2455C113.232 84.2455 113.982 84.2455 114.608 84.2455C114.983 84.2455 115.108 84.3705 114.983 84.7459C114.107 87.7482 113.357 90.8756 112.481 93.8779C112.481 94.0031 112.481 94.1282 112.356 94.2532C111.981 94.7536 109.354 94.3784 109.103 93.8779C108.353 92.5019 107.727 91.0008 106.977 89.3745C106.601 91.0008 106.101 92.2517 105.851 93.6277C105.726 94.1282 105.476 94.3784 104.85 94.3784C104.1 94.2532 103.474 94.3784 102.723 94.3784C102.348 94.3784 102.223 94.2532 102.348 93.8779C103.224 90.7506 103.974 87.7482 104.85 84.6209C104.975 84.2455 105.225 84.1204 105.601 84.1204H105.726C108.228 84.1204 108.228 84.1204 109.229 86.3721C109.604 87.373 109.979 88.1235 110.479 89.1242Z" fill="#D9D9D9"/>
<path d="M61.4414 89.3744C62.4421 89.8747 63.0676 90.5003 62.9425 91.501C62.8174 92.6269 62.3171 93.3774 61.3162 93.8778C60.3155 94.3783 59.3147 94.5033 58.3139 94.5033C56.5625 94.5033 54.8112 94.5033 53.1849 94.5033C52.6846 94.5033 52.5595 94.3782 52.6846 94.0029C53.5603 91.0006 54.3108 87.8732 55.1865 84.8709C55.3116 84.4956 55.4367 84.2454 55.812 84.3704C57.4382 84.3704 59.0645 84.3704 60.5657 84.3704C60.941 84.3704 61.1912 84.3704 61.5664 84.4956C62.9425 84.7457 63.568 85.4963 63.6931 86.4971C63.8182 87.623 63.1928 88.6237 62.0669 89.1241C61.8166 89.2492 61.6916 89.2492 61.4414 89.3744ZM56.5625 91.8763C57.3132 92.0014 58.0638 92.0014 58.8143 91.8763C59.1896 91.7512 59.4398 91.626 59.4398 91.1257C59.4398 90.7504 59.3147 90.6253 59.0645 90.5001C57.8136 89.9998 56.8127 90.5001 56.5625 91.8763ZM58.5641 88.3735C58.9394 88.3735 59.3147 88.3735 59.69 88.2485C60.0653 88.1234 60.3155 87.8732 60.3155 87.4978C60.3155 87.1226 59.9402 86.9975 59.565 86.9975C59.3147 86.9975 58.9394 86.9975 58.6893 86.9975C57.8136 86.8723 57.6884 87.4978 57.6884 87.9982C57.6884 88.7489 58.3139 88.1234 58.5641 88.3735Z" fill="#D9D9D9"/>
<path d="M35.5463 94.5033C34.7957 94.5033 33.92 94.5033 33.1695 94.5033C32.669 94.5033 32.669 94.3782 32.7941 93.8778C33.6698 90.8755 34.4204 87.8732 35.2961 84.7457C35.4212 84.3704 35.5463 84.2454 35.9216 84.2454C37.0475 84.2454 38.1733 84.2454 39.4242 84.2454C41.3008 84.2454 42.927 84.7457 43.8027 86.6221C44.6783 88.4987 44.1779 90.3751 42.927 92.0013C41.676 93.6276 39.7996 94.2531 37.798 94.3782C36.9223 94.5033 36.2968 94.5033 35.5463 94.5033ZM37.2976 91.6261C38.5485 91.501 39.5494 91.2508 40.1749 90.3751C40.6753 89.7496 40.8003 88.8739 40.4251 88.2485C40.0498 87.4978 39.2992 87.4978 38.5485 87.3728C38.1733 87.3728 37.9232 87.4978 37.798 87.8732C37.5478 88.8739 37.2976 89.8747 37.0475 90.8755C36.7973 91.3758 36.9223 91.6261 37.2976 91.6261Z" fill="#D9D9D9"/>
<path d="M87.5867 93.1272C88.3373 90.3751 89.0878 87.623 89.7133 84.7457C89.8384 84.3704 90.0887 84.2454 90.4639 84.2454C91.5898 84.2454 92.7156 84.2454 93.7165 84.2454C95.5929 84.2454 97.3443 84.7457 98.22 86.7473C99.0955 88.8739 98.4702 90.7504 97.0941 92.3767C95.9682 93.7527 94.3419 94.2531 92.5906 94.3782C92.3404 94.1281 92.0901 94.1281 91.7149 94.1281C90.8392 94.1281 89.9635 94.1281 89.213 94.1281C87.8369 94.2531 87.8369 94.2531 87.5867 93.1272ZM91.9651 91.501C92.7156 91.501 93.4663 91.2508 93.9667 90.8755C94.7172 90.3751 95.2176 89.2492 94.9674 88.3735C94.7172 87.4978 93.8415 87.2477 93.091 87.2477C92.5906 87.2477 92.3403 87.3728 92.3403 87.8732C92.0901 88.8739 91.8399 89.8747 91.5898 90.7504C91.2146 91.501 91.4647 91.6261 91.9651 91.501Z" fill="#D9D9D9"/>
<path d="M28.1657 84.1204C32.2938 84.1204 34.4205 87.7482 32.544 91.376C31.2931 93.6277 28.9162 95.0039 26.4143 94.6286C22.6614 94.1282 20.91 90.3753 22.9116 86.9976C24.0375 85.2462 25.9139 84.1204 28.1657 84.1204ZM27.4151 91.7513C28.666 91.7513 29.7919 90.6254 29.7919 89.1242C29.7919 87.9985 29.0413 87.1228 27.9155 87.1228C26.6644 87.1228 25.5386 88.3737 25.5386 89.7497C25.5386 90.8756 26.2892 91.6263 27.4151 91.7513Z" fill="#D9D9D9"/>
<path d="M122.489 88.4986C123.114 88.6236 124.24 88.1233 124.615 88.6236C124.866 88.999 124.365 89.9997 124.115 90.7504C123.99 91.3758 123.74 91.8762 123.615 92.5016C123.49 93.5025 122.864 93.8778 121.988 94.128C120.612 94.6284 119.236 94.7534 117.735 94.3782C115.233 93.7527 113.857 91.5009 114.483 88.8738C115.108 85.6213 117.985 83.9951 121.363 83.9951C122.614 83.9951 123.74 84.3703 124.74 85.121C125.241 85.4962 125.491 85.8715 124.866 86.2469C124.74 86.3719 124.615 86.4971 124.49 86.6221C123.865 87.4978 123.239 87.8731 122.113 87.1226C119.987 85.9967 117.735 87.7479 117.86 89.8747C117.985 91.1256 119.236 92.0013 120.362 91.5009C120.863 91.3758 120.863 91.0005 120.863 90.6252C120.863 90.1249 120.362 90.375 120.237 90.375C119.611 90.375 119.361 90.2499 119.486 89.4993C119.862 88.1233 119.862 88.1233 121.238 88.1233C121.613 88.4986 121.988 88.4986 122.489 88.4986Z" fill="#D9D9D9"/>
<path d="M67.0707 84.3705C68.8221 84.3705 68.8221 84.3705 68.3217 85.9969C67.9464 87.2478 67.5711 88.6239 67.3209 89.9999C67.1958 90.7506 67.1958 91.251 67.9464 91.6263C68.6969 91.8765 69.4476 91.6263 69.948 91.0008C70.1981 90.6254 70.3232 90.2501 70.3232 89.8749C70.8236 88.2487 71.1989 86.6223 71.5742 84.9961C71.6992 84.3705 71.9495 84.1204 72.5749 84.2455C73.2004 84.2455 73.951 84.2455 74.5765 84.2455C75.0768 84.2455 75.202 84.3705 75.0768 84.871C74.5765 86.7474 74.0761 88.749 73.4506 90.7506C72.3247 94.1282 68.9471 95.6293 65.6946 94.2532C63.9432 93.5027 63.1927 92.0015 63.6931 89.7497C64.0684 87.9985 64.5688 86.3721 65.0691 84.6209C65.1943 84.2455 65.4445 84.1204 65.6946 84.1204C66.3201 84.3705 66.6954 84.3705 67.0707 84.3705Z" fill="#D9D9D9"/>
<path d="M54.9364 84.3703C53.5602 85.9967 52.3093 87.4978 50.9332 88.8738C49.6822 90.2499 48.6815 91.7511 48.4313 93.6275C48.3061 94.3782 47.9309 94.6284 47.1803 94.5032C46.4297 94.3782 45.3038 94.8785 44.9285 94.253C44.5533 93.7527 45.1787 92.752 45.4289 92.1264C45.8042 91.0006 45.6792 90.1249 45.3038 88.999C44.8035 87.6229 44.4281 86.2469 44.0528 84.8708C43.9278 84.3703 43.9278 84.1202 44.5533 84.1202C44.5533 84.1202 44.5533 84.1202 44.6783 84.1202C47.4304 83.9951 47.4304 83.9951 48.0559 86.7472C48.0559 86.9974 48.1811 87.1226 48.3061 87.6229C49.0567 86.6221 49.8073 85.7464 50.4329 84.8708C50.8081 84.3703 51.1834 84.1202 51.8089 84.2453C52.8096 84.3703 53.8105 84.3703 54.9364 84.3703Z" fill="#D9D9D9"/>
<path d="M150.886 91.1256C150.135 91.8763 149.51 92.6268 148.634 93.3774C148.258 92.5017 148.009 91.7511 147.633 90.7504C147.258 91.8763 147.008 92.877 146.757 93.7527C146.633 94.2531 146.382 94.5033 145.882 94.5033C144.005 94.5033 144.005 94.5033 144.506 92.7519C145.006 91.0006 145.507 89.3742 145.882 87.623C146.006 86.9975 146.257 86.7473 146.883 86.8723C148.634 86.8723 148.634 86.8723 149.135 88.4987C149.26 88.7489 149.26 88.999 149.384 89.3744C150.009 89.1241 150.385 88.4987 150.636 88.1233C151.261 87.1226 152.261 86.7473 153.387 86.8723C154.513 86.9975 154.513 86.8723 154.264 87.9982C153.763 89.9998 153.138 91.8763 152.637 93.8777C152.513 94.5033 152.261 94.6284 151.636 94.6284C149.885 94.6284 149.885 94.6284 150.261 92.877C150.76 92.2515 150.886 91.7511 150.886 91.1256C151.011 91.1256 151.011 91.0006 151.011 91.0006C151.011 91.1256 151.011 91.1256 150.886 91.1256Z" fill="#D9D9D9"/>
<path d="M82.3326 94.5033C81.2067 94.5033 79.9557 94.5033 78.8298 94.5033C78.3294 94.5033 78.3294 94.3783 78.4545 93.8778C79.3302 90.8755 80.0808 87.8732 80.8314 84.7458C80.9565 84.3704 81.2067 84.1203 81.5819 84.1203C82.4576 84.1203 83.7086 83.8701 84.0838 84.2454C84.5843 84.7458 83.8337 85.8716 83.5835 86.7473C83.2081 88.1234 82.8329 89.3744 82.4576 90.7505C82.3326 91.2508 82.4576 91.3759 82.958 91.3759C83.9588 91.3759 85.0847 91.3759 86.2106 91.3759C86.7109 91.3759 86.9611 91.3759 86.8361 92.1265C86.2106 94.3783 86.2106 94.3783 83.9588 94.3783C83.4584 94.5033 82.8329 94.5033 82.3326 94.5033Z" fill="#D9D9D9"/>
<path d="M139.877 94.6283C137.626 94.6283 135.999 93.1271 135.999 91.1256C135.999 88.7488 138.001 86.7472 140.378 86.6221C142.63 86.6221 144.255 87.9981 144.255 89.9997C144.381 92.6268 142.379 94.6283 139.877 94.6283ZM141.753 90.5002C141.753 89.6245 141.254 88.999 140.378 88.999C139.501 88.999 138.626 89.8747 138.626 90.8754C138.626 91.7511 139.126 92.3766 139.877 92.3766C140.878 92.3766 141.753 91.5009 141.753 90.5002Z" fill="#D9D9D9"/>
<path d="M132.872 86.7473C134.498 86.7473 135.624 87.3728 136.125 88.3736C136.249 88.7489 136.249 88.9991 135.874 89.1241C135.624 89.2493 135.374 89.3743 134.999 89.4994C134.498 89.7496 133.998 89.9998 133.497 89.2493C133.248 88.8739 132.747 88.8739 132.246 88.9991C131.371 89.2492 130.746 90.25 130.87 91.2508C130.996 92.2515 131.996 92.6269 132.996 92.0014C133.248 91.8763 133.372 91.501 133.747 91.7512C134.248 92.1265 134.749 92.5017 135.123 93.0022C135.248 93.1272 134.873 93.5026 134.623 93.6276C132.872 95.1288 129.995 95.0037 128.743 93.3774C127.492 91.7512 128.118 88.8739 129.995 87.623C130.996 86.9975 131.996 86.7473 132.872 86.7473Z" fill="#D9D9D9"/>
<path d="M75.3272 94.5033C73.5758 94.5033 73.7009 94.5033 74.0762 92.877C74.8267 90.25 75.5774 87.623 76.2028 84.9959C76.328 84.3704 76.5781 84.2454 77.0785 84.2454C77.704 84.2454 78.3295 84.2454 79.0801 84.2454C79.7056 84.2454 79.7056 84.4955 79.5804 84.9959C78.7049 87.8732 77.9542 90.8755 77.2037 93.8778C77.0785 94.3782 76.8283 94.6284 76.328 94.5033C76.0778 94.5033 75.7024 94.5033 75.3272 94.5033Z" fill="#D9D9D9"/>
<path d="M99.4709 94.5033C97.7196 94.5033 97.7196 94.5033 98.22 92.7519C98.8455 90.125 99.596 87.623 100.222 84.996C100.347 84.3704 100.597 84.1203 101.222 84.2454C101.723 84.2454 102.348 84.2454 102.848 84.2454C103.599 84.2454 103.849 84.3704 103.599 85.1211C102.723 87.9982 101.973 90.7505 101.347 93.6276C101.222 94.3783 100.847 94.5033 100.222 94.5033C99.9714 94.5033 99.7211 94.5033 99.4709 94.5033Z" fill="#D9D9D9"/>
<path d="M111.73 12.9403C111.355 12.9403 110.98 12.8151 110.73 12.565C108.853 11.5642 106.977 10.8136 104.85 10.5634C103.349 10.3132 101.848 10.063 100.221 9.93792C91.5898 9.06224 82.9581 9.81282 74.3263 9.56262C72.7001 9.56262 70.9487 9.56262 69.3224 9.56262C68.5719 9.56262 68.3217 9.81282 68.1966 10.5634C67.6962 12.565 67.1958 14.4414 66.6955 16.443C66.5703 16.6932 66.5703 16.9433 66.195 16.9433C66.8205 14.5666 67.446 12.1897 67.9464 9.81282C68.0715 9.43753 68.3217 9.31243 68.5719 9.31243C78.0792 9.31243 87.4615 9.18734 96.9689 9.31243C101.097 9.31243 105.1 9.93792 108.853 11.5642C110.104 11.9395 110.98 12.3148 111.73 12.9403Z" fill="#D9D9D9"/>
<path d="M125.616 94.5033C124.24 94.5033 124.24 94.5033 124.49 93.2524C124.866 92.0013 125.616 91.501 126.992 91.8763C127.242 92.0013 127.368 92.1265 127.242 92.2515C127.117 92.5017 127.117 92.7519 126.992 93.1272C126.992 94.2531 126.492 94.7534 125.616 94.5033Z" fill="#D9D9D9"/>
<path d="M87.5866 93.1272C87.8368 94.2531 87.8368 94.2531 89.2128 94.2531C90.0885 94.2531 90.9642 94.2531 91.7148 94.2531C91.965 94.2531 92.3403 94.128 92.4654 94.5032C90.8391 94.7534 89.0878 94.5033 87.4615 94.6284C87.2113 94.6284 87.0862 94.5033 87.2113 94.2531C87.3364 93.7527 87.4616 93.5025 87.5866 93.1272Z" fill="#D9D9D9"/>
<path d="M159.892 87.6231C159.643 88.6238 159.267 88.2486 158.892 87.6231C158.517 87.9983 158.892 88.4988 158.517 88.874C158.517 88.1234 158.517 87.6231 158.517 86.9976C159.142 86.9976 159.142 88.1234 159.892 87.6231Z" fill="#D9D9D9"/>
<path d="M158.141 86.9976C156.891 87.3729 157.64 88.2486 157.391 88.9991C156.766 88.4988 157.766 87.3729 156.64 86.9976C157.015 86.9976 157.516 86.9976 158.141 86.9976Z" fill="#D9D9D9"/>
<path d="M159.892 87.6231C159.892 87.2477 160.018 87.1227 160.393 86.9976C160.393 87.6231 160.393 88.2486 160.393 88.874C159.892 88.4988 160.519 87.7481 159.892 87.6231Z" fill="#D9D9D9"/>
<path d="M112.356 13.3152C112.106 13.3152 111.73 13.3152 111.73 12.9399C111.981 12.9399 112.231 13.065 112.356 13.3152Z" fill="#D9D9D9"/>
</svg>
