<svg width="171" height="104" viewBox="0 0 171 104" fill="none" xmlns="http://www.w3.org/2000/svg">
<path d="M29.3403 31.4542C29.3403 32.455 29.3403 33.4558 29.3403 34.5816C29.3403 35.9577 29.5905 37.0836 31.0917 37.4589C31.7172 37.5839 31.7172 37.9593 31.7172 38.4596C31.5921 39.0851 31.0917 38.835 30.7164 38.835C28.3396 38.835 25.9627 38.835 23.7109 38.835C23.3357 38.835 22.8353 39.0851 22.8353 38.3346C22.8353 37.8341 22.8353 37.5839 23.4608 37.3337C24.8368 36.9585 25.2122 35.8327 25.2122 34.5816C25.2122 29.0774 25.2122 23.448 25.2122 17.9438C25.2122 16.5676 24.8368 15.4418 23.3357 15.0665C22.7102 14.9414 22.8353 14.5662 22.8353 14.1908C22.8353 13.5653 23.3357 13.6905 23.7109 13.6905C26.0879 13.6905 28.4646 13.6905 30.9666 13.6905C31.3419 13.6905 31.8423 13.5653 31.8423 14.1908C31.8423 14.6912 31.7172 14.9414 31.0917 15.0665C29.8407 15.3167 29.3403 16.3174 29.3403 17.4433C29.3403 19.57 29.3403 21.8218 29.3403 23.9484C29.3403 24.8241 29.5905 24.9492 30.4662 24.9492C32.2176 24.9492 33.969 24.8241 35.8454 24.9492C36.8461 24.9492 36.9713 24.5739 36.9713 23.6982C36.9713 21.5716 36.9713 19.4449 36.9713 17.3183C36.9713 16.0673 36.4709 15.1916 35.2199 14.8164C34.5944 14.6912 34.4693 14.441 34.4693 13.8155C34.4693 13.19 34.9697 13.3152 35.345 13.3152C37.7218 13.3152 40.0987 13.3152 42.6007 13.3152C42.9759 13.3152 43.4763 13.19 43.4763 13.8155C43.4763 14.3159 43.4763 14.5662 42.8508 14.8164C41.4748 15.0665 41.0994 16.0673 41.0994 17.4433C41.0994 23.1979 41.0994 28.8272 41.0994 34.5816C41.0994 35.8327 41.4748 36.7084 42.7257 37.0836C43.2262 37.2087 43.4763 37.3337 43.4763 37.9593C43.4763 38.7098 42.8508 38.4596 42.4755 38.4596C40.0987 38.4596 37.7218 38.4596 35.4701 38.4596C35.0949 38.4596 34.5944 38.7098 34.4693 38.0844C34.3442 37.5839 34.4693 37.2087 35.0949 37.0836C36.4709 36.7084 36.8461 35.7075 36.8461 34.3314C36.8461 32.0797 36.8461 29.8279 36.8461 27.5762C36.8461 26.7005 36.5959 26.3253 35.7202 26.4503C35.0949 26.4503 34.5944 26.4503 33.969 26.4503C32.4678 26.5755 30.4662 25.8248 29.5905 26.8257C28.84 28.0766 29.3403 29.9531 29.3403 31.4542Z" fill="#D9D9D9"/>
<path d="M37.4716 77.365C38.9728 77.9905 40.0987 78.616 40.9743 79.6168C44.2269 82.7442 43.4763 87.623 39.3481 89.7496C38.3473 90.25 37.0963 90.5003 35.8454 90.5003C32.718 90.5003 29.5905 90.5003 26.4631 90.5003C26.0879 90.5003 25.4623 90.6253 25.3372 89.9998C25.2122 89.3744 25.7125 89.2493 26.2129 89.2493C27.2137 88.9991 27.5889 88.3736 27.8391 87.4979C28.0894 86.4972 27.9643 85.6215 27.9643 84.6207C27.9643 79.8671 27.9643 74.9882 27.9643 70.2345C27.9643 68.8585 28.2145 67.1071 25.8377 67.1071C25.2122 67.1071 25.3372 66.6067 25.3372 66.2314C25.3372 65.731 25.5874 65.6059 25.9627 65.6059C29.7157 65.731 33.4685 65.2307 37.2215 65.9812C40.3489 66.6067 41.5998 67.9828 41.9751 70.6098C42.3505 73.1118 41.0994 75.4886 38.5975 76.8646C38.3473 76.8646 37.972 76.9898 37.4716 77.365ZM31.9674 83.1195C31.9674 84.4956 31.9674 85.9968 31.9674 87.3729C31.9674 87.9982 31.9674 88.4987 32.718 88.7489C33.8438 89.2493 36.4709 88.7489 37.2215 87.7481C38.9728 85.4963 38.7227 82.9944 37.972 80.6176C37.3465 78.4909 35.345 78.1157 33.4685 77.9905C32.3426 77.8655 31.9674 78.2407 32.0924 79.3666C32.0924 80.6176 31.9674 81.8685 31.9674 83.1195ZM31.9674 72.3611C31.9674 73.487 32.0924 74.4879 31.9674 75.6137C31.8423 76.8646 32.4678 77.1148 33.4685 76.8646C35.345 76.4894 36.7211 75.6137 37.2215 73.6122C37.7218 71.4854 37.5968 69.3588 35.9704 67.7326C35.2199 66.9819 34.094 66.7318 32.9681 67.2323C31.8423 67.7326 31.9674 68.6083 31.9674 69.484C31.9674 70.4847 31.9674 71.4854 31.9674 72.3611Z" fill="#D9D9D9"/>
<path d="M80.8803 63.479C77.0023 63.479 74.5004 61.8528 73.1243 58.7253C71.8733 55.4729 72.4988 51.7199 75.0007 49.218C75.8764 48.3423 76.1266 47.7168 75.6262 46.4659C74.5004 43.8388 74.8756 41.3369 76.7521 39.0851C78.2532 37.3337 81.0053 36.7083 83.132 37.709C84.7583 38.3346 85.634 39.9608 85.5088 41.8372C85.5088 42.5879 85.2586 43.3384 84.7583 43.8388C84.0077 44.5893 83.0069 44.8395 82.1312 44.2141C81.0053 43.5886 81.0053 42.4627 81.2556 41.3369C81.5058 40.3361 82.2563 39.9608 83.132 40.211C83.3822 40.211 83.6324 40.5863 83.7576 40.0858C83.8826 39.8356 83.7576 39.5855 83.6324 39.3353C82.8819 37.9592 81.0053 37.5839 79.6293 38.7098C78.1282 39.9608 76.8771 44.3391 77.5027 46.2157C77.6277 46.7161 78.003 46.7161 78.3784 46.7161C78.8787 46.7161 79.3791 46.5909 79.8794 46.7161C81.1305 46.8411 81.756 47.8419 81.6308 48.9678C81.5058 50.3439 80.6301 50.8442 79.3791 50.7192C78.8787 50.7192 78.2532 50.3439 77.7528 50.0937C76.2516 49.218 75.3759 49.5933 75.0007 51.3446C74.2501 54.2218 76.0015 57.4743 78.7536 58.4752C83.5072 60.2266 87.8857 57.8497 88.2609 53.3462C88.3861 51.3446 87.1351 49.7183 85.5088 49.7183C84.7583 49.7183 84.0077 49.8435 83.8826 50.7192C83.6324 51.7199 84.5081 51.3446 84.8834 51.5948C85.634 51.9701 86.0093 52.7206 85.759 53.5963C85.5088 54.472 85.1336 55.2226 84.1328 55.2226C83.132 55.3477 82.8819 54.5972 82.6317 53.9717C81.6308 51.0944 82.8819 48.4674 85.759 47.3416C87.5104 46.5909 89.3868 46.3407 91.0132 45.34C92.6394 44.3391 93.0146 41.7122 91.6386 40.4612C91.2633 40.0858 90.888 39.8356 90.2625 40.0858C89.512 40.4612 89.8873 40.9615 90.1375 41.3369C90.2625 41.7122 90.3877 42.0874 90.5127 42.4627C90.6378 43.3384 90.5127 44.2141 89.3868 44.4643C88.2611 44.7145 87.5104 44.089 87.1351 43.0882C86.6347 41.8372 87.3854 39.8356 88.5112 39.0851C89.6371 38.3346 91.2633 38.7098 92.3892 39.8356C95.1413 42.5879 94.2656 47.8419 90.5127 49.5933C88.8864 50.3439 89.0116 50.9694 89.2618 52.4705C90.763 58.6002 86.8849 63.479 80.8803 63.479ZM81.0053 48.8426C80.8803 48.2171 80.505 47.8419 80.0046 47.967C79.5042 48.0921 78.6285 47.967 78.5034 48.5925C78.3784 49.218 79.1289 49.5933 79.7544 49.7183C80.3799 49.8435 80.8803 49.4682 81.0053 48.8426Z" fill="#D9D9D9"/>
<path d="M133.171 13.6909C134.421 13.6909 135.547 13.6909 136.799 13.6909C141.302 13.816 144.43 16.0677 145.68 20.321C146.806 24.199 146.806 28.077 145.68 31.955C144.304 36.3335 140.926 38.7102 136.298 38.8354C133.671 38.8354 131.045 38.8354 128.417 38.8354C128.042 38.8354 127.541 39.0856 127.541 38.4601C127.541 37.9597 127.667 37.7095 128.042 37.5844C129.668 37.084 130.043 35.708 130.043 34.3319C130.043 28.9527 130.043 23.5735 130.043 18.1944C130.043 16.8184 129.668 15.6925 128.042 15.3172C127.417 15.192 127.417 14.8168 127.417 14.3163C127.417 13.5658 127.916 13.6909 128.292 13.6909C129.919 13.6909 131.544 13.6909 133.171 13.6909ZM134.046 26.3257C134.046 29.2029 134.046 32.2053 134.046 35.0824C134.046 36.959 134.673 37.4593 136.424 37.3342C139.175 37.084 140.427 36.2083 141.177 33.4562C142.178 29.4531 142.052 25.45 141.677 21.3218C141.553 19.9457 141.052 18.6948 140.427 17.4438C139.551 15.9427 137.424 14.9418 135.923 15.4422C133.922 15.9427 134.172 17.5689 134.172 19.07C134.046 21.3218 134.046 23.8238 134.046 26.3257Z" fill="#D9D9D9"/>
<path d="M65.9937 65.4807C67.8701 65.4807 69.6215 65.3556 71.3729 65.8559C73.4995 66.4814 75.1258 67.7325 75.5011 70.1092C75.8763 72.4861 74.8756 74.3626 72.6238 75.3634C71.7481 75.7386 71.7481 76.239 72.1235 76.9896C72.874 78.6159 73.4995 80.3673 74.125 82.1185C74.6254 83.3696 75.1258 84.6206 76.5018 85.121C77.0022 85.246 77.0022 85.6213 77.0022 86.1217C77.0022 86.7472 76.5018 86.622 76.1266 86.622C76.0015 86.622 76.0015 86.622 76.0015 86.622C72.2485 86.8723 72.2485 86.8723 70.8724 83.3696C70.3721 81.9935 69.8717 80.6175 69.2462 79.2414C68.8709 78.4907 68.6207 77.6152 67.8701 77.1147C67.3698 76.7395 66.8694 76.6143 66.8694 77.49C66.8694 79.7418 66.8694 81.9935 66.8694 84.1201C66.8694 84.9958 67.3698 85.121 68.1203 85.246C68.6207 85.246 68.996 85.246 68.996 85.9967C68.996 86.7472 68.4957 86.7472 67.9953 86.7472C65.9937 86.7472 64.1172 86.7472 62.1157 86.7472C61.7404 86.7472 61.24 86.7472 61.24 86.2468C61.24 85.8715 61.24 85.3711 61.7404 85.3711C63.2416 85.3711 63.1165 84.2453 63.3666 83.3696C63.3666 83.1194 63.3666 82.7441 63.3666 82.4939C63.3666 78.2406 63.3666 73.9872 63.3666 69.8591C63.3666 68.6082 63.3666 67.2321 61.6153 66.9818C61.24 66.8568 61.1149 66.4814 61.1149 66.2313C61.1149 65.6057 61.4902 65.6057 61.9906 65.6057C63.4918 65.4807 64.7427 65.4807 65.9937 65.4807ZM66.9945 71.6104C66.9945 72.4861 66.9945 73.4869 66.9945 74.3626C66.9945 74.7379 66.7443 75.2383 67.3698 75.4884C68.2455 75.8638 70.8724 74.9881 71.1226 74.1124C71.8733 72.236 71.8733 70.1092 70.9976 68.358C70.3721 67.1069 68.996 67.107 67.8701 67.3571C66.6191 67.6073 67.1196 68.6082 66.9945 69.2335C66.9945 69.9842 66.9945 70.7348 66.9945 71.6104Z" fill="#D9D9D9"/>
<path d="M82.7567 65.4809C84.3829 65.4809 86.2594 65.3557 88.0107 65.8561C90.2625 66.4816 91.8887 67.7326 92.2641 70.2346C92.6393 72.7365 91.6386 74.4879 89.3868 75.4886C88.6363 75.8639 88.5111 76.1141 88.8864 76.9898C89.7621 78.7412 90.3875 80.7427 91.1382 82.494C91.6386 83.6199 92.0139 84.8709 93.3899 85.3713C93.7652 85.4963 93.8903 85.7466 93.8903 86.1219C93.8903 86.6222 93.515 86.6222 93.1398 86.6222C91.8887 86.6222 90.7629 86.6222 89.512 86.6222C88.7613 86.6222 88.6363 85.8717 88.5111 85.4963C87.6354 83.3697 86.8849 81.3682 86.1343 79.2416C86.0092 78.8662 85.8842 78.4909 85.634 78.1157C85.2586 77.4902 84.8833 76.7396 84.1328 76.8647C83.2571 77.1148 83.7574 77.9905 83.7574 78.6161C83.6324 80.2423 83.7574 81.8685 83.7574 83.3697C83.7574 84.3705 83.8826 85.2462 85.2586 85.1211C85.759 85.1211 86.1343 85.3713 86.0092 85.8717C86.0092 86.4972 85.5088 86.4972 85.1335 86.4972C83.0069 86.4972 81.0053 86.4972 79.0037 86.4972C78.6284 86.4972 78.1281 86.4972 78.1281 85.8717C78.1281 85.3713 78.1281 84.996 78.7536 84.996C80.0046 84.996 80.2548 83.9952 80.2548 83.1196C80.2548 78.2407 80.2548 73.362 80.2548 68.4832C80.2548 67.6075 79.8794 66.7318 78.8787 66.6068C78.2532 66.4816 78.1281 66.2314 78.1281 65.7311C78.1281 64.9805 78.7536 65.2307 79.1289 65.2307C80.2548 65.4809 81.3807 65.4809 82.7567 65.4809ZM88.3861 71.2353C88.3861 70.4847 88.3861 69.609 88.0107 68.7334C87.3852 67.2323 86.1343 67.1071 84.7583 67.2323C83.3822 67.3573 83.7574 68.6083 83.7574 69.3589C83.6324 70.9851 83.7574 72.6113 83.7574 74.3627C83.7574 75.2384 84.0076 75.4886 84.8833 75.4886C87.5104 75.3636 88.2609 74.3627 88.3861 71.2353Z" fill="#D9D9D9"/>
<path d="M101.271 86.7472C99.3947 86.7472 97.5181 86.7472 95.6417 86.7472C95.2664 86.7472 94.766 86.8722 94.641 86.3719C94.5158 85.7463 94.8911 85.6213 95.3915 85.4962C96.3922 85.246 96.6425 84.3703 96.6425 83.4947C96.6425 78.6159 96.6425 73.737 96.6425 68.9834C96.6425 67.9826 96.3922 67.1069 95.1413 66.9818C94.641 66.8568 94.5158 66.6066 94.5158 66.1062C94.5158 65.4807 94.8911 65.4807 95.3915 65.4807C99.1445 65.4807 102.897 65.4807 106.65 65.4807C107.151 65.4807 107.401 65.7309 107.526 66.2313C107.901 67.6073 108.277 69.1085 108.652 70.4846C108.777 70.9849 108.777 71.2351 108.276 71.4853C107.651 71.8606 107.651 71.2351 107.401 70.9849C106.65 69.9842 105.9 68.9834 105.024 68.1077C104.273 67.4823 103.523 66.9818 102.397 66.8568C100.646 66.7316 100.145 67.2321 100.145 68.9834C100.145 70.6097 100.27 72.236 100.145 73.737C100.02 74.9881 100.521 75.1131 101.646 74.9881C103.147 74.7379 103.898 73.8622 104.023 72.4861C104.023 72.1108 104.023 71.6104 104.524 71.6104C105.274 71.6104 105.149 72.1108 105.149 72.6112C105.149 74.7379 105.149 76.9896 105.149 79.1162C105.149 79.6166 105.274 80.1171 104.524 80.1171C103.898 80.1171 103.898 79.6166 103.898 79.2414C103.773 78.3657 103.398 77.6152 102.647 76.9896C102.022 76.4893 101.146 76.114 100.395 76.3641C99.5197 76.6143 100.02 77.49 100.02 78.1155C99.895 79.9919 100.02 81.8684 100.02 83.7449C100.02 84.7456 100.395 84.9958 101.396 85.121C104.273 85.246 106.15 83.7449 107.401 81.368C107.651 80.9927 107.651 80.1171 108.527 80.3673C109.402 80.7425 109.027 81.368 108.902 81.9935C108.026 86.7472 108.026 86.7472 103.523 86.7472C102.772 86.7472 102.022 86.7472 101.271 86.7472Z" fill="#D9D9D9"/>
<path d="M122.412 27.451C122.412 24.3235 122.412 21.3211 122.412 18.1938C122.412 16.8177 121.912 15.8169 120.661 15.3165C120.161 15.0663 119.91 14.8162 120.036 14.3157C120.161 13.5651 120.661 13.8153 121.036 13.8153C122.287 13.8153 123.663 13.8153 124.914 13.8153C125.29 13.8153 125.665 13.6903 125.665 14.1906C125.665 14.566 125.79 15.0663 125.29 15.1914C123.413 15.8169 123.413 17.4431 123.413 19.0694C123.413 23.8232 123.413 28.7019 123.413 33.4556C123.413 33.9559 123.789 34.8316 122.788 34.9568C122.037 35.0818 121.412 34.9568 121.036 34.0811C118.66 29.4524 116.283 24.8239 113.781 20.3204C113.531 19.82 113.28 19.3197 112.78 18.444C112.78 19.1945 112.655 19.6949 112.655 20.0702C112.655 23.3227 112.655 26.7003 112.655 29.9529C112.655 31.454 112.78 32.9552 114.656 33.4556C115.157 33.5807 115.157 34.0811 115.032 34.4564C114.907 34.9568 114.531 34.9568 114.281 34.9568C112.905 34.9568 111.404 34.9568 110.028 34.9568C109.653 34.9568 109.277 34.9568 109.277 34.4564C109.277 34.0811 109.277 33.5807 109.778 33.4556C111.529 32.83 111.654 31.329 111.654 29.8278C111.654 25.8246 111.654 21.6964 111.654 17.6933C111.654 16.3172 111.279 15.4416 109.903 15.1914C109.277 15.0663 109.152 14.691 109.152 14.1906C109.152 13.5651 109.653 13.6903 110.028 13.6903H110.153C114.406 13.4401 114.406 13.4401 116.408 17.1929C118.284 20.5706 120.036 24.0733 121.912 27.451C122.037 27.451 122.162 27.451 122.412 27.451Z" fill="#D9D9D9"/>
<path d="M61.2399 24.3237C61.2399 27.0759 60.7396 29.7029 59.1133 31.9547C55.9859 36.4581 50.2313 36.333 47.2291 31.8295C44.4769 27.7014 44.4769 20.9461 47.2291 16.8179C50.2313 12.3144 55.9859 12.1893 59.1133 16.5676C60.7396 18.9445 61.2399 21.5716 61.2399 24.3237ZM57.1117 24.3237C57.1117 22.072 56.9866 19.5701 56.1109 17.3183C55.6105 15.9423 54.86 14.6912 53.1086 14.6912C51.3572 14.6912 50.6067 15.9423 50.1063 17.3183C48.7303 22.072 48.7303 26.7005 50.1063 31.4542C50.4816 32.8303 51.3572 34.0813 53.1086 34.0813C54.7348 34.0813 55.4855 32.9554 55.9859 31.5794C56.9866 29.3276 57.1117 26.9507 57.1117 24.3237Z" fill="#D9D9D9"/>
<path d="M132.92 77.4903C132.92 74.3629 132.92 71.2354 132.92 68.108C132.92 66.8571 132.545 66.8571 131.67 67.3575C130.043 68.4833 128.917 70.1096 127.791 71.7359C127.541 72.1111 127.417 72.9868 126.541 72.6115C125.665 72.2363 126.29 71.6108 126.416 71.1104C126.791 69.359 126.666 66.9823 127.667 65.9814C128.793 64.8555 131.169 65.7312 132.92 65.6061C135.547 65.6061 138.175 65.6061 140.802 65.6061C141.928 65.6061 142.428 65.9814 142.553 67.1073C142.803 68.6085 143.178 70.1096 143.428 71.6108C143.428 71.9861 143.804 72.3613 143.178 72.6115C142.553 72.8618 142.303 72.4865 142.178 72.1111C141.177 70.3597 140.051 68.7335 138.3 67.6076C137.925 67.3575 137.55 66.9822 137.049 67.2324C136.548 67.4826 136.799 67.983 136.799 68.3583C136.799 74.488 136.799 80.7428 136.799 86.8727C136.799 88.2487 136.923 89.6248 138.8 89.6248C139.301 89.6248 139.425 90 139.425 90.3753C139.425 90.8757 139.05 90.8757 138.676 90.8757C135.923 90.8757 133.295 90.8757 130.669 90.8757C130.294 90.8757 129.919 90.8757 129.919 90.2502C129.919 89.7498 130.043 89.4996 130.544 89.4996C132.295 89.4996 132.545 88.2487 132.545 86.8727C132.92 83.6201 132.92 80.4926 132.92 77.4903Z" fill="#D9D9D9"/>
<path d="M119.535 75.7388C119.535 78.2408 119.535 80.6177 119.535 83.1196C119.535 84.2455 119.535 85.4964 121.287 85.3714C121.662 85.3714 121.912 85.6215 121.912 85.9969C121.912 86.4972 121.662 86.7474 121.161 86.7474C119.035 86.7474 116.783 86.7474 114.656 86.7474C114.156 86.7474 113.906 86.6223 113.781 86.1219C113.781 85.6215 113.906 85.3714 114.406 85.3714C115.782 85.3714 115.907 84.2455 115.907 83.3698C115.907 78.2408 115.907 73.2369 115.907 68.1079C115.907 67.7327 116.032 67.3574 115.657 67.1072C115.282 66.857 114.907 67.2323 114.531 67.4825C113.155 68.4832 112.28 69.7343 111.404 71.1103C111.279 71.3605 111.154 71.8609 110.653 71.7358C110.153 71.6107 110.153 71.1103 110.278 70.735C110.528 69.2338 110.903 67.7327 111.154 66.2315C111.279 65.606 111.654 65.606 112.154 65.606C115.657 65.606 119.285 65.606 122.788 65.606C123.413 65.606 123.788 65.7311 123.914 66.3566C124.164 67.8577 124.414 69.2338 124.789 70.735C124.914 71.1103 124.914 71.4855 124.539 71.7358C123.914 71.986 123.788 71.4855 123.538 71.1103C122.663 69.6091 121.912 68.233 120.411 67.3574C119.535 66.857 119.16 66.982 119.16 67.9829C119.535 70.4848 119.535 73.1119 119.535 75.7388Z" fill="#D9D9D9"/>
<path d="M104.899 34.9573C103.898 34.9573 102.897 34.9573 102.022 34.9573C101.646 34.9573 101.396 34.8321 101.271 34.4569C101.271 34.2066 101.146 33.8314 101.521 33.7063C103.648 32.9557 102.897 31.4545 102.522 30.0784C102.272 29.3279 102.522 28.202 101.646 28.0769C100.02 27.8267 98.3938 27.7017 96.8926 28.202C96.017 28.4522 96.1421 30.0785 95.7667 31.0793C95.2664 32.3302 95.5165 33.2059 96.8926 33.5812C97.3931 33.7063 97.5181 34.0816 97.3931 34.4569C97.2679 34.9573 96.8926 34.9573 96.5174 34.9573C95.5165 34.9573 94.3907 34.9573 93.3899 34.9573C93.0146 34.9573 92.5143 35.0823 92.3891 34.4569C92.2641 34.0816 92.3891 33.7063 92.7644 33.4561C94.0155 32.7055 94.3907 31.4545 94.766 30.2036C96.1421 25.3248 97.5181 20.4461 98.7691 15.5672C99.1444 13.941 100.395 13.941 101.521 13.6908C102.272 13.5657 102.147 14.4413 102.272 14.9417C103.523 19.9456 104.649 24.9496 105.775 29.9534C106.15 31.4545 106.15 33.0807 108.026 33.5812C108.402 33.7063 108.402 34.0816 108.402 34.4569C108.402 34.9573 108.026 34.9573 107.651 34.9573C106.775 34.9573 105.775 34.9573 104.899 34.9573ZM99.5197 17.4436C98.644 20.3209 98.0185 22.6978 97.2679 25.0746C97.0178 25.9503 97.1428 26.4506 98.2687 26.3256C99.0193 26.2005 99.895 26.3256 100.646 26.3256C101.271 26.3256 101.646 26.3256 101.396 25.4499C100.771 23.073 100.27 20.4461 99.5197 17.4436Z" fill="#D9D9D9"/>
<path d="M56.4864 86.7473C55.4855 86.7473 54.4848 86.7473 53.6091 86.7473C53.2338 86.7473 52.8586 86.6221 52.8586 86.2469C52.8586 85.8716 52.8586 85.4963 53.2339 85.3712C54.9852 84.7457 54.4848 83.4948 54.2346 82.2438C53.9844 81.3681 54.1095 79.992 53.3589 79.8669C51.8577 79.4917 49.9813 79.2415 48.6052 79.8669C47.4794 80.3674 47.4794 82.3689 47.104 83.6198C46.8539 84.4955 47.4794 84.9959 48.2299 85.2461C48.7304 85.3712 48.9806 85.6214 48.9806 86.2469C48.8554 86.8723 48.3551 86.7473 47.9797 86.7473C46.979 86.7473 45.9782 86.7473 45.1026 86.7473C44.7273 86.7473 44.2269 86.8723 44.1017 86.2469C43.9767 85.8716 44.1017 85.4963 44.4771 85.2461C45.728 84.4955 46.1033 83.1195 46.4786 81.7434C47.7295 76.9897 49.2308 72.3611 50.3566 67.6074C50.7318 65.9812 51.8577 65.731 52.9836 65.4808C53.9844 65.2306 53.7343 66.2314 53.7343 66.6067C54.9852 71.6106 56.111 76.7396 57.3621 81.7434C57.7373 83.2445 57.7373 84.8709 59.6138 85.3712C59.989 85.4963 59.989 85.8716 59.989 86.2469C59.989 86.7473 59.6138 86.7473 59.2385 86.7473C58.3628 86.7473 57.4871 86.7473 56.4864 86.7473ZM51.1072 69.2336C50.4817 71.4854 49.9813 73.2368 49.4809 74.9882C48.4801 78.4908 48.4801 78.4908 52.108 78.2407C52.9836 78.2407 53.1087 77.8654 52.9836 77.1148C52.3582 74.6128 51.8577 72.1109 51.1072 69.2336Z" fill="#D9D9D9"/>
<path d="M84.3829 34.832C82.5065 34.832 80.7551 34.832 78.8787 34.832C78.5034 34.832 78.003 34.9571 77.878 34.3316C77.7528 33.7061 78.2532 33.7061 78.6285 33.5811C79.6293 33.2058 80.0046 32.3301 80.0046 31.4544C80.0046 26.7007 80.0046 21.947 80.0046 17.1933C80.0046 16.0675 79.6293 15.3169 78.5034 14.9416C78.003 14.8165 77.7528 14.5664 77.878 14.0659C78.003 13.5655 78.3784 13.6907 78.7536 13.6907C80.6301 13.6907 82.6317 13.6907 84.6331 13.6907C85.0085 13.6907 85.3838 13.5655 85.5088 14.0659C85.634 14.5664 85.3838 14.8165 84.8834 14.9416C83.6324 15.3169 83.5072 16.3176 83.5072 17.4435C83.5072 22.0722 83.5072 26.7007 83.5072 31.3293C83.5072 33.2058 84.2579 33.7061 86.1343 33.4559C88.3861 33.0806 89.6371 31.4544 90.888 29.8281C91.1382 29.4528 91.2633 28.7023 91.8889 28.9524C92.3892 29.2026 92.139 29.8281 92.0139 30.3285C91.6386 31.7045 91.7637 33.5811 90.888 34.4568C90.0123 35.3324 88.0107 34.707 86.6347 34.707C85.759 34.832 85.0085 34.832 84.3829 34.832Z" fill="#D9D9D9"/>
<path d="M64.7427 24.1986C64.7427 21.9469 64.7427 19.5701 64.7427 17.3183C64.7427 16.1925 64.4925 15.1916 63.3666 14.8164C62.9914 14.6913 62.6161 14.5662 62.7411 14.0657C62.8663 13.4404 63.3666 13.6905 63.742 13.6905C65.6184 13.6905 67.4949 13.6905 69.3714 13.6905C69.7466 13.6905 70.247 13.5654 70.247 14.1909C70.3721 14.6913 69.9969 14.8164 69.6215 14.9414C68.6207 15.3168 68.3705 16.1925 68.3705 17.1932C68.3705 21.9469 68.3705 26.8257 68.3705 31.5794C68.3705 33.0806 69.1212 33.581 70.4972 33.4558C72.874 33.2056 74.2501 31.4542 75.6261 29.828C75.8764 29.4527 76.1266 28.7021 76.627 28.8273C77.2525 29.0775 76.8771 29.828 76.752 30.3284C76.3768 31.7044 76.5018 33.581 75.6261 34.4567C74.7506 35.3322 72.749 34.7068 71.3729 34.7068C68.871 34.7068 66.3691 34.7068 63.867 34.7068C63.4918 34.7068 62.8663 34.957 62.7411 34.2063C62.6161 33.4558 63.2416 33.581 63.6168 33.4558C64.6177 32.9554 64.8679 32.2049 64.7427 31.2041C64.6177 28.9523 64.7427 26.5755 64.7427 24.1986Z" fill="#D9D9D9"/>
</svg>
