<svg width="161" height="36" viewBox="0 0 161 36" fill="none" xmlns="http://www.w3.org/2000/svg">
<g clip-path="url(#clip0_2825_1978)">
<path d="M0.852315 9.236C0.937378 9.06588 0.937378 8.81069 1.02244 8.64056C1.27763 7.96006 1.70294 7.36462 2.29838 7.02437C5.87102 4.8978 9.44366 2.85629 12.9312 0.644662C14.1221 -0.120903 16.2487 0.729725 16.7591 1.9206C16.8441 2.09073 16.8441 2.34592 16.8441 2.60111C16.8441 4.38742 16.8441 6.17374 16.8441 7.96006C16.8441 9.15094 16.3337 10.0866 15.313 10.6821C12.0806 12.7236 8.84822 14.7651 5.53077 16.8066C5.19052 16.9767 4.85027 17.1468 4.51002 17.402C4.25483 17.402 4.0847 17.402 3.82951 17.402C3.14901 17.0618 2.80876 16.5514 2.55357 15.8709C1.95813 13.9995 1.27763 12.1281 0.68219 10.2568C0.852316 9.9165 0.852315 9.57625 0.852315 9.236ZM4.33989 15.8709C4.51002 15.7858 4.51002 15.7858 4.59508 15.7858C7.99759 13.6593 11.4001 11.5327 14.8026 9.40613C15.313 9.06588 15.4831 8.64056 15.4831 8.13019C15.4831 6.34387 15.4831 4.64261 15.4831 2.85629C15.3981 2.60111 15.398 2.43098 15.313 2.34592C14.8877 1.83554 14.2072 1.75048 13.6117 2.09073C10.2092 4.13224 6.80671 6.17374 3.31914 8.21525C2.38345 8.81069 2.12826 9.40613 2.46851 10.4269C2.89382 11.5327 3.23407 12.7236 3.65939 13.8294C3.91458 14.5099 4.16976 15.1904 4.33989 15.8709Z" fill="#D9D9D9"/>
<path d="M34.7073 26.2486C34.7073 26.3336 34.6222 26.4187 34.6222 26.5888C34.367 27.4395 33.9417 28.12 33.1762 28.5453C29.6035 30.6719 26.0309 32.7134 22.5433 34.925C21.3524 35.6906 19.2259 34.8399 18.7155 33.649C18.6304 33.4789 18.6304 33.2237 18.6304 33.0536C18.6304 31.2673 18.6304 29.3959 18.6304 27.6096C18.6304 26.5038 19.1408 25.5681 20.0765 24.9726C23.3939 22.8461 26.7965 20.8046 30.1139 18.678C30.3691 18.5079 30.7093 18.4228 30.9645 18.2527C31.1347 18.2527 31.3048 18.2527 31.4749 18.2527C32.1554 18.5079 32.5807 19.0183 32.7509 19.6988C33.3463 21.6552 34.0268 23.6116 34.7073 25.483C34.7073 25.7382 34.7073 25.9934 34.7073 26.2486ZM31.2197 19.6988C31.0496 19.7838 30.9645 19.7838 30.9645 19.8689C27.562 21.9954 24.2446 24.122 20.8421 26.2486C20.4168 26.5038 20.2466 26.9291 20.2466 27.4395C20.2466 29.2258 20.2466 31.0121 20.2466 32.7134C20.2466 32.8835 20.4168 33.1387 20.5869 33.3088C21.0973 33.649 21.6076 33.7341 22.2031 33.3939C25.6056 31.3524 29.0081 29.3108 32.3255 27.3544C33.1762 26.844 33.4314 26.1635 33.0911 25.1428C32.6658 23.9519 32.3255 22.8461 31.9002 21.6552C31.645 21.0598 31.4749 20.3793 31.2197 19.6988Z" fill="#D9D9D9"/>
<path fill-rule="evenodd" clip-rule="evenodd" d="M4.0847 10.0016L15.1429 16.8066C16.5039 17.6572 17.0993 19.0182 17.0142 21.1448L16.9292 25.3129C16.674 27.1842 14.2922 28.1199 13.0163 27.4394L2.80876 21.1448C1.44775 20.3792 0.767253 19.7838 0.68219 17.2319L0.767253 11.2775C0.767253 9.32106 0.852315 8.72562 1.19257 8.13018C1.61788 7.44968 3.65939 6.34386 3.82951 6.2588C4.25483 6.00361 3.23407 7.02436 3.31914 8.13018C3.31914 9.06587 3.23407 9.06587 4.0847 10.0016Z" fill="#D9D9D9"/>
<path fill-rule="evenodd" clip-rule="evenodd" d="M31.4749 25.4831L20.4167 18.678C19.0557 17.8274 18.4603 16.4664 18.5454 14.3398L18.6304 10.1718C18.8856 8.30038 21.2674 7.36469 22.5433 8.0452L32.921 14.3398C34.282 15.1054 34.9625 15.7008 35.0475 18.2527L34.9625 24.2071C34.9625 26.1636 34.8774 26.759 34.5372 27.3544C34.1119 28.035 32.0704 29.1408 31.9002 29.2258C31.4749 29.481 32.4957 28.4603 32.4106 27.3544C32.2405 26.5038 32.3255 26.4188 31.4749 25.4831Z" fill="#D9D9D9"/>
<path d="M41.8526 23.7817L43.9791 21.4C45.5953 23.0162 47.2115 23.8668 48.9128 23.8668C49.7634 23.8668 50.4439 23.6967 50.9543 23.3564C51.4647 23.0162 51.7199 22.5058 51.7199 21.9104C51.7199 21.4 51.5497 21.0597 51.2095 20.7195C50.8692 20.3792 50.1887 20.124 49.253 19.6987L47.4667 18.9332C45.8505 18.2527 44.7447 17.5722 43.9791 16.8066C43.2136 16.041 42.8733 15.0203 42.8733 13.9145C42.8733 12.3833 43.4688 11.1074 44.5746 10.2568C45.7655 9.32107 47.2115 8.89575 48.9978 8.89575C51.5497 8.89575 53.5062 9.83144 55.0373 11.6178L52.9958 13.9145C51.89 12.7236 50.529 12.1281 48.9128 12.1281C47.2966 12.1281 46.531 12.7236 46.531 13.8294C46.531 14.2547 46.7011 14.595 47.0414 14.9352C47.3817 15.1904 47.9771 15.5306 48.8277 15.8709L50.529 16.5514C52.2302 17.2319 53.4211 17.9975 54.1867 18.8481C54.9522 19.6137 55.2925 20.6344 55.2925 21.8253C55.2925 23.5266 54.6971 24.8025 53.4211 25.8232C52.2302 26.7589 50.614 27.1842 48.8277 27.1842C46.0206 27.1842 43.6389 26.0784 41.8526 23.7817Z" fill="#D9D9D9"/>
<path d="M58.695 18.0827C58.695 17.9976 58.695 17.9976 58.695 17.9125C58.695 15.4457 59.5456 13.4042 61.3319 11.6179C63.1182 9.83159 65.1597 8.98096 67.5415 8.98096C67.6266 8.98096 67.6266 8.98096 67.7116 8.98096C70.0083 8.98096 71.9648 9.74652 73.4959 11.2777C75.027 12.8088 75.7926 14.6802 75.7926 16.9769C75.7926 17.6574 75.7075 18.4229 75.5374 19.3586H62.4377C62.6929 20.8047 63.2884 21.9105 64.3091 22.7611C65.3299 23.6118 66.6058 23.952 68.1369 23.952C70.0083 23.952 71.7096 23.2715 73.2407 21.9105L75.027 24.4624C73.0706 26.3338 70.7739 27.2695 68.0519 27.2695C65.4149 27.2695 63.2033 26.4188 61.3319 24.6325C59.5456 22.8462 58.695 20.6346 58.695 18.0827ZM62.5228 16.3814H72.0498C72.0498 15.1055 71.6245 13.9997 70.7739 13.2341C69.9233 12.4685 68.9025 12.0432 67.6266 12.0432C66.4357 12.0432 65.3299 12.4685 64.3942 13.2341C63.3734 13.9997 62.778 15.0204 62.5228 16.3814Z" fill="#D9D9D9"/>
<path d="M80.386 25.8232C79.2802 24.8876 78.6848 23.6967 78.6848 22.1655C78.6848 20.6344 79.2802 19.4435 80.4711 18.5078C81.6619 17.5722 83.1931 17.1468 85.1495 17.1468H90.0832V15.956C90.0832 14.7651 89.7429 13.8294 89.1475 13.1489C88.467 12.4684 87.5313 12.2132 86.3404 12.2132C84.5541 12.2132 82.9379 13.0638 81.4918 14.8501L79.3653 12.6385C81.0665 10.1717 83.5333 8.89575 86.6807 8.89575C88.8923 8.89575 90.5935 9.57625 91.8695 10.8522C93.1454 12.1281 93.8259 13.9145 93.8259 16.2112V26.7589H90.3384V24.8025C89.0624 26.4187 87.191 27.1842 84.7242 27.1842C83.023 27.1842 81.4918 26.7589 80.386 25.8232ZM82.5126 21.9954C82.5126 22.6759 82.7678 23.2714 83.3632 23.6967C83.9586 24.122 84.6391 24.2921 85.5748 24.2921C86.8508 24.2921 87.9566 23.8668 88.8072 23.1012C89.6579 22.3357 90.0832 21.3149 90.0832 20.2091V19.8689H85.5748C83.5333 19.8689 82.5126 20.5494 82.5126 21.9954Z" fill="#D9D9D9"/>
<path d="M97.1434 12.5536V9.32117H100.036V4.72778H103.778V9.32117H108.967V12.5536H103.778V20.8046C103.778 21.9105 104.033 22.676 104.629 23.1013C105.224 23.5267 106.075 23.7818 107.266 23.7818C107.691 23.7818 108.457 23.6968 109.563 23.6117V26.759C108.372 27.0142 107.266 27.1844 106.415 27.1844C104.374 27.1844 102.758 26.674 101.652 25.6532C100.546 24.6325 99.9504 23.1013 99.9504 21.0598V12.5536H97.1434Z" fill="#D9D9D9"/>
<path d="M113.305 26.759V0.0493164H117.048V26.759H113.305Z" fill="#D9D9D9"/>
<path d="M122.832 25.8232C121.726 24.8876 121.131 23.6967 121.131 22.1655C121.131 20.6344 121.726 19.4435 122.917 18.5078C124.108 17.5722 125.639 17.1468 127.596 17.1468H132.529V15.956C132.529 14.7651 132.189 13.8294 131.594 13.1489C130.913 12.4684 129.978 12.2132 128.787 12.2132C127 12.2132 125.384 13.0638 123.938 14.8501L121.812 12.6385C123.513 10.1717 125.98 8.89575 129.127 8.89575C131.339 8.89575 133.04 9.57625 134.316 10.8522C135.592 12.1281 136.272 13.9145 136.272 16.2112V26.7589H132.785V24.8025C131.509 26.4187 129.637 27.1842 127.17 27.1842C125.384 27.1842 123.938 26.7589 122.832 25.8232ZM124.874 21.9954C124.874 22.6759 125.129 23.2714 125.724 23.6967C126.32 24.122 127 24.2921 127.936 24.2921C129.212 24.2921 130.318 23.8668 131.168 23.1012C132.019 22.3357 132.444 21.3149 132.444 20.2091V19.8689H127.936C125.98 19.8689 124.874 20.5494 124.874 21.9954Z" fill="#D9D9D9"/>
<path d="M141.461 26.759V0.0493164H145.204V11.4477C146.565 9.74647 148.521 8.98091 151.073 8.98091C153.54 8.98091 155.581 9.83154 157.198 11.6179C158.814 13.4042 159.665 15.5307 159.665 18.1677C159.665 20.7196 158.814 22.9312 157.198 24.6325C155.581 26.4188 153.54 27.2694 151.073 27.2694C148.351 27.2694 146.31 26.3337 144.949 24.4623V26.8441H141.461V26.759ZM145.204 18.0826C145.204 19.8689 145.714 21.315 146.735 22.3358C147.756 23.3565 149.032 23.8669 150.478 23.8669C152.009 23.8669 153.285 23.3565 154.306 22.2507C155.326 21.1449 155.837 19.7839 155.837 18.0826C155.837 16.3814 155.326 15.0204 154.306 13.9996C153.285 12.8938 152.009 12.3834 150.478 12.3834C149.032 12.3834 147.756 12.8938 146.735 13.9145C145.714 14.8502 145.204 16.2112 145.204 18.0826Z" fill="#D9D9D9"/>
</g>
<defs>
<clipPath id="clip0_2825_1978">
<rect width="160.854" height="35.4712" fill="white" transform="translate(0.086731 0.0493164)"/>
</clipPath>
</defs>
</svg>
