<svg width="171" height="104" viewBox="0 0 171 104" fill="none" xmlns="http://www.w3.org/2000/svg">
<path d="M149.694 54.4722C150.945 54.4722 152.071 54.4722 153.197 54.7224C154.197 54.8475 155.199 55.2227 156.074 55.7232C157.575 56.5989 158.451 57.8498 158.827 59.4761C159.202 60.7271 159.326 62.1031 159.202 63.4792C159.202 64.3549 159.076 65.1054 158.827 65.856C158.076 67.9827 156.699 69.4839 154.448 70.1093C153.572 70.3595 152.696 70.4846 151.821 70.6098C150.569 70.7348 149.443 70.7348 148.318 70.6098C147.317 70.6098 146.191 70.3595 145.19 70.1093C142.938 69.3588 141.437 67.7325 140.812 65.4808C140.436 64.1047 140.436 62.8537 140.562 61.4776C140.562 60.6019 140.812 59.7262 141.063 58.8505C141.812 56.8491 143.314 55.5981 145.316 54.8475C146.191 54.5973 146.941 54.4722 147.818 54.3472C148.443 54.4722 149.068 54.4722 149.694 54.4722ZM153.322 62.6035C153.322 62.3533 153.322 61.978 153.197 61.7278C153.071 61.2274 153.071 60.6019 152.821 60.2267C152.446 59.351 151.695 58.7255 150.695 58.4753C150.194 58.3502 149.694 58.3502 149.193 58.3502C147.692 58.4753 146.692 59.2259 146.191 60.6019C146.066 61.1023 145.941 61.6028 145.941 62.1031C145.941 62.9788 145.941 63.8545 146.191 64.6051C146.566 65.7309 147.317 66.4815 148.568 66.7317C149.068 66.8568 149.694 66.8568 150.194 66.7317C151.445 66.6066 152.32 65.856 152.696 64.6051C153.322 64.1047 153.322 63.354 153.322 62.6035Z" fill="#D9D9D9"/>
<path d="M104.909 59.4761C104.909 58.8506 104.534 58.4754 103.908 58.2252C103.533 58.1001 103.158 57.975 102.783 57.975C102.282 57.975 101.782 57.975 101.156 58.1001C100.906 58.1001 100.781 58.2252 100.531 58.3502C100.156 58.6004 100.03 58.9758 100.156 59.4761C100.281 59.7263 100.406 59.8515 100.656 59.8515C100.906 59.8515 101.156 59.9765 101.407 59.9765C103.408 60.3518 105.41 60.602 107.411 60.9773C108.162 61.1024 108.912 61.3527 109.663 61.7279C110.914 62.4785 111.539 63.4793 111.664 64.9805C111.664 65.6059 111.664 66.2314 111.539 66.8569C111.289 68.1078 110.539 68.9835 109.413 69.609C108.537 70.1094 107.661 70.3595 106.661 70.6097C105.159 70.86 103.658 70.9851 102.157 70.86C100.906 70.86 99.6552 70.7349 98.4041 70.4847C97.5286 70.2345 96.6529 69.9843 95.9022 69.3588C94.7763 68.4831 94.276 67.3572 94.1509 65.9812C94.1509 65.731 94.1509 65.731 94.4011 65.731C96.4027 65.731 98.5293 65.731 100.531 65.731C100.656 65.731 100.781 65.731 100.781 65.9812C100.781 66.4816 101.156 66.8569 101.657 66.9819C102.032 67.1071 102.282 67.1071 102.657 67.1071C103.283 67.1071 103.783 67.1071 104.409 66.9819C104.534 66.9819 104.659 66.8569 104.784 66.8569C105.159 66.6067 105.41 66.3565 105.41 65.856C105.41 65.3557 105.159 65.1055 104.659 64.9805C104.284 64.8553 103.908 64.8553 103.533 64.7303C101.657 64.355 99.9053 64.1048 98.0289 63.8546C97.5286 63.7294 96.903 63.6044 96.5277 63.3541C95.527 62.8537 94.9015 61.9781 94.6513 60.9773C94.4011 60.1016 94.4011 59.1009 94.6513 58.2252C94.9015 57.0993 95.652 56.3487 96.6529 55.7233C97.4034 55.2228 98.2791 54.9726 99.1548 54.8476C100.03 54.7224 100.906 54.5974 101.907 54.5974C103.033 54.5974 104.034 54.5974 105.159 54.7224C106.41 54.8476 107.661 55.0978 108.787 55.7233C109.788 56.2236 110.539 56.9742 111.039 58.1001C111.164 58.4754 111.289 58.9758 111.289 59.4761C111.289 59.6013 111.289 59.6013 111.164 59.6013H111.039C109.037 59.6013 107.161 59.6013 105.159 59.6013C105.034 59.4761 105.034 59.4761 104.909 59.4761Z" fill="#D9D9D9"/>
<path d="M139.061 60.977C138.935 60.977 138.811 60.977 138.685 60.977C136.809 60.977 135.058 60.977 133.181 60.977H133.057C132.931 60.977 132.931 60.9771 132.806 60.8519C132.681 60.4767 132.681 60.1014 132.43 59.726C131.931 58.8503 131.18 58.35 130.178 58.35C129.679 58.35 129.303 58.35 128.802 58.4751C127.677 58.7253 127.051 59.3508 126.551 60.3515C126.301 60.8519 126.176 61.4774 126.176 61.9778C126.176 62.8535 126.176 63.7292 126.426 64.6049C126.426 64.855 126.551 64.9802 126.676 65.2304C127.177 66.2311 128.052 66.8566 129.178 66.8566C129.679 66.8566 130.054 66.8566 130.554 66.7315C131.304 66.4813 131.931 66.1061 132.306 65.3554C132.43 65.1052 132.556 64.73 132.681 64.4797C132.681 64.2295 132.681 64.2295 132.931 64.2295C133.682 64.2295 134.557 64.2295 135.307 64.2295C136.309 64.2295 137.434 64.2295 138.436 64.2295C138.56 64.2295 138.685 64.2295 138.811 64.2295C138.56 65.3554 138.31 66.4813 137.809 67.357C137.06 68.608 135.934 69.4837 134.557 69.9841C133.682 70.3593 132.681 70.4844 131.68 70.4844C130.554 70.6096 129.303 70.6096 128.177 70.4844C127.177 70.4844 126.051 70.2342 125.05 69.9841C122.673 69.2334 121.297 67.6071 120.671 65.2304C120.421 63.9793 120.296 62.8535 120.421 61.6026C120.421 60.7269 120.546 59.9762 120.796 59.2257C121.422 56.9739 122.923 55.4728 125.175 54.7222C126.051 54.472 126.801 54.3469 127.677 54.2218C128.802 54.0966 129.928 54.0966 131.18 54.2218C132.306 54.2218 133.306 54.472 134.432 54.8473C136.559 55.5979 137.935 57.0991 138.56 59.2257C138.935 59.9762 139.061 60.4767 139.061 60.977Z" fill="#D9D9D9"/>
<path d="M59.7492 62.6036C59.7492 60.2268 59.7492 57.7249 59.7492 55.348C59.7492 54.9727 59.7492 54.9727 60.1245 54.9727C64.753 54.9727 69.3817 54.9727 74.0102 54.9727C74.3856 54.9727 74.3856 54.9727 74.3856 55.348C74.3856 56.3487 74.3856 57.3496 74.3856 58.4754V58.6005C74.3856 58.7256 74.3856 58.7256 74.2604 58.7256C74.1354 58.7256 74.1354 58.7256 74.0102 58.7256C71.1331 58.7256 68.3808 58.7256 65.5037 58.7256C65.1284 58.7256 65.1284 58.7256 65.1284 59.101C65.1284 59.6013 65.1284 60.1017 65.1284 60.602C65.1284 60.8522 65.1284 60.8522 65.3785 60.8522C67.3801 60.8522 69.5067 60.8522 71.5083 60.8522C72.1338 60.8522 72.7593 60.8522 73.2597 60.8522C73.5099 60.8522 73.5099 60.8522 73.5099 61.1024C73.5099 62.2283 73.5099 63.2291 73.5099 64.355C73.5099 64.6052 73.5099 64.6052 73.2597 64.6052C71.0079 64.6052 68.8813 64.6052 66.7546 64.6052C66.2542 64.6052 65.7539 64.6052 65.2535 64.6052C65.0033 64.6052 65.0033 64.6052 65.0033 64.8554C65.0033 65.3557 65.0033 65.9812 65.0033 66.4816C65.0033 66.6067 65.0032 66.7318 65.1284 66.7318C65.2535 66.7318 65.5037 66.7318 65.6287 66.7318C68.2558 66.7318 70.8829 66.7318 73.5099 66.7318C73.635 66.7318 73.635 66.7318 73.76 66.7318C74.0102 66.7318 74.0102 66.7318 74.0102 66.982C74.0102 67.9828 74.0102 69.1087 74.0102 70.1094V70.2346C74.0102 70.3596 74.0102 70.3596 73.8852 70.3596C73.76 70.3596 73.76 70.3596 73.635 70.3596C69.0064 70.3596 64.3778 70.3596 59.6241 70.3596C59.499 70.3596 59.499 70.3596 59.499 70.3596C59.374 70.3596 59.374 70.3596 59.374 70.2346C59.374 70.1094 59.374 70.1094 59.374 69.9844C59.7492 67.4824 59.7492 65.1055 59.7492 62.6036Z" fill="#D9D9D9"/>
<path d="M41.4851 62.6036C41.4851 60.2268 41.4851 57.7249 41.4851 55.348C41.4851 54.9727 41.4851 54.9727 41.7353 54.9727C45.3631 54.9727 49.116 54.9727 52.7438 54.9727C53.6195 54.9727 54.3701 55.0978 55.2457 55.348C56.4967 55.8484 57.2473 56.724 57.6226 58.1001C57.7476 58.7256 57.8728 59.3511 57.8728 59.8515C57.8728 60.602 57.8728 61.3527 57.6226 62.1032C57.1222 63.8546 55.9964 64.8554 54.245 65.2307C53.8696 65.4809 53.3693 65.4809 52.7438 65.4809C50.8673 65.4809 49.116 65.4809 47.2395 65.4809C47.1144 65.4809 47.1144 65.4809 47.1144 65.4809C46.8642 65.4809 46.8642 65.4809 46.8642 65.7311C46.8642 67.1071 46.8642 68.4832 46.8642 69.8592C46.8642 70.2346 46.8642 70.2346 46.489 70.2346C44.8628 70.2346 43.3616 70.2346 41.7353 70.2346C41.6102 70.2346 41.6102 70.2346 41.4851 70.2346C41.36 70.2346 41.36 70.2346 41.36 70.1094C41.36 69.9844 41.36 69.9844 41.36 69.8592C41.4851 67.4824 41.4851 65.1055 41.4851 62.6036ZM48.9909 58.6005C48.3654 58.6005 47.7399 58.6005 47.1144 58.6005C46.8642 58.6005 46.8642 58.6005 46.8642 58.8508C46.8642 59.7263 46.8642 60.7272 46.8642 61.6029C46.8642 61.8531 46.8642 61.8531 47.1144 61.8531C48.2403 61.8531 49.2411 61.8531 50.367 61.8531C50.7423 61.8531 50.9925 61.8531 51.3677 61.7279C51.8681 61.6029 52.1184 61.2276 52.2434 60.8522C52.3686 60.477 52.3686 60.1017 52.2434 59.7263C52.1184 59.101 51.743 58.8506 51.2427 58.7256C50.9925 58.7256 50.7423 58.6005 50.492 58.6005C49.9917 58.6005 49.4913 58.6005 48.9909 58.6005Z" fill="#D9D9D9"/>
<path d="M76.5121 62.6036C76.5121 60.2268 76.5121 57.8499 76.5121 55.4731C76.5121 55.348 76.5121 55.348 76.5121 55.2228C76.5121 54.9727 76.5121 54.9727 76.7623 54.9727C80.5153 54.9727 84.1431 54.9727 87.8959 54.9727C88.6466 54.9727 89.3971 55.0978 90.1476 55.348C91.3987 55.8484 92.2744 56.724 92.6496 58.1001C93.0249 59.4762 93.0249 60.8522 92.6496 62.2283C92.1492 63.9797 91.0233 64.9805 89.3971 65.3557C88.8967 65.4809 88.3964 65.4809 87.8959 65.4809C86.0195 65.4809 84.1431 65.4809 82.3917 65.4809C82.2666 65.4809 82.2665 65.4809 82.1415 65.4809C82.0163 65.4809 82.0163 65.4809 82.0163 65.6059C82.0163 65.6059 82.0163 65.731 82.0163 65.8561C82.0163 67.2323 82.0163 68.6083 82.0163 69.9844C82.0163 70.1094 82.0163 70.1094 82.0163 70.2346C82.0163 70.2346 82.0163 70.3596 81.8913 70.3596C81.7662 70.3596 81.7662 70.3596 81.6411 70.3596C80.0149 70.3596 78.3885 70.3596 76.7623 70.3596H76.6373C76.5121 70.3596 76.5121 70.3596 76.5121 70.2346C76.5121 70.1094 76.5121 70.1094 76.5121 69.9844C76.5121 67.4824 76.5121 65.1055 76.5121 62.6036ZM84.0179 58.6005C83.3924 58.6005 82.767 58.6005 82.1415 58.6005C81.8913 58.6005 81.8913 58.6005 81.8913 58.8508C81.8913 59.7263 81.8913 60.602 81.8913 61.6029C81.8913 61.8531 81.8913 61.8531 82.1415 61.8531C83.1422 61.8531 84.1431 61.8531 85.2689 61.8531C85.5191 61.8531 85.8945 61.8531 86.1446 61.7279C86.645 61.6029 87.0203 61.3527 87.1454 60.8522C87.2705 60.477 87.2705 59.9765 87.1454 59.6013C87.0203 59.226 86.77 58.8506 86.3948 58.7256C86.1446 58.6005 85.8944 58.6005 85.6441 58.6005C85.1438 58.6005 84.5183 58.6005 84.0179 58.6005Z" fill="#D9D9D9"/>
<path d="M119.045 62.6036C119.045 64.9805 119.045 67.3573 119.045 69.8592V69.9844C119.045 70.2346 119.045 70.2346 118.795 70.2346C117.169 70.2346 115.542 70.2346 113.916 70.2346C113.666 70.2346 113.666 70.2346 113.666 69.9844C113.666 67.9828 113.666 65.9812 113.666 63.9797C113.666 61.1024 113.666 58.2253 113.666 55.348C113.666 54.9727 113.666 54.9727 114.041 54.9727C115.667 54.9727 117.169 54.9727 118.795 54.9727C118.795 54.9727 118.92 54.9727 119.045 54.9727C119.17 54.9727 119.17 54.9727 119.17 55.0978C119.17 55.2228 119.17 55.2228 119.17 55.348C119.045 57.8499 119.045 60.2268 119.045 62.6036Z" fill="#D9D9D9"/>
<path d="M36.1059 42.338C36.7313 41.2121 36.9814 40.2114 36.8564 39.0855C36.8564 38.7102 36.7313 38.335 36.6062 37.9597C36.6062 37.8345 36.4811 37.8345 36.6062 37.7095C36.7313 37.7095 36.7313 37.7095 36.7313 37.8345C37.3568 38.46 37.7321 39.2107 37.8571 40.0863C37.9823 41.2121 37.7321 42.338 37.2318 43.3388C37.1066 43.4639 37.1066 43.589 36.9814 43.7141C36.9814 43.8392 36.8564 43.8392 36.8564 43.9644C36.7313 44.2145 36.4811 44.3396 36.4811 44.7149C36.3561 44.7149 36.3561 44.8399 36.3561 44.8399C35.8556 45.4654 35.2302 46.2161 34.6047 46.7165C34.2293 47.0917 33.729 47.467 33.2286 47.8424C32.9784 47.9674 32.6031 48.2176 32.3529 48.4679C32.2278 48.4679 32.2278 48.5929 32.1027 48.5929C31.4772 48.9682 30.9769 49.3434 30.3513 49.5937C29.3506 50.0941 28.3498 50.5945 27.2239 50.9698C26.8487 51.0948 26.5985 51.0948 26.2232 51.345H26.098C24.4718 51.8454 22.7204 52.0957 20.9691 52.2207C20.5938 52.2207 20.3436 52.2207 19.9683 52.2207C18.9676 52.2207 17.8417 52.0957 16.966 51.7203C16.0903 51.4702 15.3398 51.0948 14.5891 50.4693C13.8386 49.8439 13.3382 49.0933 13.3382 48.0925C13.3382 47.9674 13.3382 47.8423 13.3382 47.7172C13.4633 47.7172 13.4633 47.7172 13.4633 47.8424C13.5884 48.4679 14.0887 48.9682 14.5891 49.3434C15.0896 49.8439 15.715 50.0941 16.4656 50.3443C17.4664 50.7196 18.4672 50.8446 19.5931 50.7196C19.9683 50.7196 20.2185 50.7196 20.5938 50.7196C20.9691 50.7196 21.2193 50.7195 21.5945 50.5945C22.9706 50.4693 24.3468 50.0941 25.5977 49.7188C25.7228 49.7188 25.973 49.5937 26.098 49.5937C26.2232 49.4686 26.4734 49.4686 26.5985 49.3434C26.7235 49.3434 26.8487 49.3434 26.8487 49.2184C28.3498 48.5929 29.851 47.9674 31.1019 47.0917C31.227 46.9667 31.3522 46.9667 31.4772 46.8415C31.7274 46.7165 31.9776 46.4663 32.2278 46.3411C32.2278 46.3411 32.2278 46.2161 32.3529 46.2161H32.4781C33.4788 45.3404 34.4795 44.4647 35.3552 43.4639C35.3552 43.3389 35.4804 43.3389 35.4804 43.2137C35.8556 42.9635 35.9807 42.7133 36.1059 42.338Z" fill="#D9D9D9"/>
<path d="M31.9776 38.585C32.353 37.8344 32.6032 37.2089 32.4781 36.3332C32.353 35.3324 31.7275 34.5818 30.8518 34.2065C30.7267 34.2065 30.6016 34.2065 30.6016 34.0815C30.6016 33.9563 30.6016 33.9563 30.7267 33.9563C31.8526 34.2065 32.8533 34.832 33.4789 35.8328C33.9792 36.5834 33.9792 37.4591 33.729 38.2096C33.604 38.585 33.4788 38.9603 33.3538 39.4606C33.2287 39.7108 32.9785 39.961 32.8533 40.2112L32.7283 40.3363C32.353 40.8367 31.9776 41.3371 31.4773 41.8374C31.1021 42.2128 30.6016 42.5881 30.2264 42.9633C29.9762 43.0885 29.6009 43.3386 29.3507 43.5888C29.2255 43.5888 29.2255 43.714 29.1005 43.714C28.3498 44.2143 27.4741 44.7147 26.5986 45.09C26.0981 45.3402 25.4727 45.5904 24.8472 45.8406C24.4718 45.9657 24.2217 45.9656 23.8463 46.2159H23.7213C23.0958 46.3409 22.4703 46.5911 21.8449 46.5911C21.0942 46.7163 20.2185 46.8413 19.468 46.8413C19.2178 46.8413 18.9676 46.8413 18.7174 46.8413C18.0919 46.7163 17.4664 46.7163 16.8409 46.4661C16.2155 46.2159 15.715 45.9656 15.2147 45.5904C14.0888 44.7147 13.7136 43.5888 14.0888 42.2128C14.2139 41.8374 14.339 41.4622 14.4641 41.2119C14.4641 41.0869 14.4641 41.0869 14.5891 40.9617C14.7143 40.9617 14.5891 41.0869 14.5891 41.0869C14.4641 41.5872 14.4641 42.0876 14.5891 42.5881C14.7143 43.4637 15.2147 44.0892 15.9653 44.4645C16.7159 44.9649 17.7166 45.09 18.5923 45.09C18.8425 45.09 19.0927 45.09 19.343 45.09C20.0935 45.09 20.844 44.9649 21.5946 44.8398C22.2201 44.7147 22.7205 44.5895 23.346 44.3394C23.7213 44.2143 23.9715 44.2143 24.2217 44.0892C24.3468 44.0892 24.3468 44.0892 24.4718 43.9641C25.3475 43.5888 26.0981 43.2135 26.8488 42.8383C27.224 42.5881 27.7244 42.3378 28.0997 42.0876C28.3498 41.9626 28.6 41.7124 28.8503 41.4622H28.9753C29.851 40.8367 30.6016 40.086 31.2271 39.2105C31.2271 39.0853 31.3523 39.0853 31.3523 38.9603C31.7275 39.0853 31.8526 38.8351 31.9776 38.585Z" fill="#D9D9D9"/>
<path d="M38.6078 47.0914C38.9832 46.3408 39.2334 45.5903 39.4835 44.8396C39.6086 44.3393 39.6086 43.964 39.6086 43.4636V43.3385C39.6086 43.2134 39.6086 43.2134 39.7337 43.2134C39.8587 43.2134 39.8587 43.3385 39.8587 43.3385C39.9839 43.964 40.109 44.5894 39.9839 45.3401C39.8587 46.466 39.6086 47.4667 38.9832 48.4675V48.5926C38.7329 48.9679 38.6078 49.2181 38.3577 49.4683C37.7321 50.344 36.8564 51.2197 35.9807 51.9702C35.7306 52.2204 35.4804 52.3455 35.2302 52.5957C34.98 52.7207 34.7298 52.9709 34.6047 53.0961C34.6047 53.0961 34.4797 53.0961 34.4797 53.2212C33.729 53.7216 32.8533 54.222 31.9777 54.5973C31.3522 54.9725 30.7267 55.0976 30.1012 55.473C29.851 55.598 29.6008 55.598 29.3507 55.7232C28.9753 55.8482 28.7251 55.9733 28.3498 55.9733C27.0989 56.3485 25.7228 56.5987 24.3468 56.7239C23.9715 56.7239 23.5961 56.7239 23.2209 56.849C22.5954 56.849 22.095 56.849 21.4695 56.849C19.8433 56.7239 18.2171 56.2235 16.841 55.3478C16.3405 55.0976 15.9653 54.7223 15.7151 54.2219C15.7151 54.0968 15.59 54.0968 15.59 53.9718C15.59 53.9718 15.59 53.9718 15.59 53.8466C15.59 53.7216 15.59 53.8466 15.7151 53.8466C15.8401 53.8466 15.7151 53.8466 15.8401 53.8466C16.7158 54.4721 17.5915 54.8475 18.7174 55.0976C19.8433 55.3478 21.0942 55.473 22.3452 55.473C22.7206 55.473 23.0958 55.473 23.4711 55.3478C23.5961 55.3478 23.5961 55.3478 23.7213 55.3478C24.597 55.2227 25.5977 55.0976 26.4734 54.8475C27.2241 54.5973 27.9746 54.4721 28.6001 54.2219C28.8503 54.0968 29.2255 53.9718 29.4757 53.8466C30.3514 53.4714 31.2271 53.0961 31.9777 52.7207C32.7283 52.3455 33.4788 51.845 34.2294 51.3447C34.4797 51.2197 34.7298 50.9695 34.98 50.8443C35.7306 50.344 36.4811 49.5933 37.1066 48.9679C37.482 48.5926 37.8573 48.0922 38.1075 47.5919C38.2325 47.7169 38.4827 47.4667 38.6078 47.0914Z" fill="#D9D9D9"/>
<path d="M19.2178 41.8375C18.5923 41.8375 18.0919 41.7125 17.5915 41.3372C16.966 40.9618 16.5907 40.3365 16.5907 39.5858C16.5907 39.2106 16.7159 38.7101 16.966 38.3349C17.2162 37.7094 17.7166 37.209 18.0919 36.7087C19.468 35.4576 20.9692 34.5819 22.7206 34.0816C23.9715 33.7062 25.3475 33.4561 26.5985 33.4561C27.0989 33.4561 27.7244 33.5812 28.2248 33.8314C29.2255 34.3317 29.6008 35.0823 29.3507 36.2082C29.3507 36.3333 29.2255 36.5835 29.2255 36.7087C29.2255 36.8337 29.1005 36.8337 29.2255 36.9588C28.9753 37.0839 28.9753 37.334 28.8503 37.4592C28.8503 37.4592 28.8503 37.4592 28.7251 37.4592C28.2248 38.0847 27.5993 38.7101 26.9738 39.2106C26.9738 39.2106 26.8487 39.2106 26.8487 39.3356C26.5985 39.4608 26.3484 39.5858 26.2232 39.7109C26.0982 39.7109 26.0982 39.7109 26.0982 39.836C25.3475 40.3365 24.4718 40.7117 23.5961 40.9618C23.4711 40.9618 23.4711 40.9618 23.346 41.087C23.0958 41.087 22.8456 41.212 22.7206 41.212C21.7197 41.4623 20.844 41.5874 19.8433 41.5874C19.5931 41.8375 19.3429 41.8375 19.2178 41.8375ZM27.7244 36.7087C27.8495 36.5835 27.8495 36.3333 27.9746 36.2082C28.0996 35.5828 27.9746 34.9573 27.3491 34.5819C27.2241 34.4569 26.9738 34.3317 26.7236 34.3317C26.2232 34.2066 25.5977 34.0816 25.0973 34.0816C23.8464 34.2066 22.7206 34.4569 21.5947 34.9573C20.4688 35.4576 19.468 36.0831 18.5923 36.9588C18.0919 37.4592 17.8417 37.9596 17.5915 38.5851C17.4664 39.3356 17.7166 39.9611 18.4672 40.3365C18.8424 40.4615 19.0928 40.5866 19.468 40.5866C19.5931 40.5866 19.8433 40.7117 19.9683 40.5866C20.844 40.5866 21.5947 40.4615 22.3452 40.2113C22.4703 40.2113 22.7206 40.2113 22.8456 39.9611C22.9707 39.9611 22.9707 39.9611 23.0958 39.9611C23.7213 39.7109 24.3468 39.4608 24.9723 39.0854C25.0973 39.0854 25.0973 38.9603 25.2225 38.8353C25.4727 38.7101 25.5977 38.5851 25.7229 38.4599C26.2232 38.0847 26.5985 37.7094 26.9738 37.334C27.0989 37.209 27.2241 37.0839 27.2241 36.9588C27.5993 36.9588 27.5993 36.8337 27.7244 36.7087Z" fill="#D9D9D9"/>
<path d="M29.3505 55.8481C29.6008 55.7231 29.851 55.598 30.1012 55.598C30.6015 56.4737 31.227 57.2242 31.9776 58.0999C32.1027 58.2251 32.1027 58.2251 32.3529 58.0999C33.3536 57.5995 34.3545 57.0992 35.23 56.4737C35.6054 56.2235 35.6054 56.2235 35.4804 55.7231C35.23 54.8474 34.9799 54.0968 34.6047 53.2212C34.8548 52.971 34.9799 52.8459 35.23 52.7207C35.4804 53.5964 35.7305 54.4721 35.8556 55.3478C35.8556 55.4729 35.8556 55.598 35.9807 55.7231C36.1057 55.7231 36.1057 55.7231 36.2309 55.598C36.8564 55.0976 37.4818 54.4721 37.9823 53.8466C37.9823 53.7216 38.1073 53.5964 38.2325 53.7216C38.3575 53.8466 38.2325 53.8466 38.1073 53.9717C37.2316 55.4729 35.9807 56.7238 34.6047 57.7247C32.8533 58.9756 30.8517 59.7261 28.5999 60.1015C26.3482 60.4768 24.3466 60.2266 22.22 59.476C22.0949 59.476 21.9698 59.476 21.9698 59.3509C21.9698 59.2258 22.0949 59.3509 22.22 59.3509C23.5961 59.6011 25.0973 59.7261 26.4734 59.6011C26.5984 59.6011 26.5984 59.6011 26.7235 59.6011C26.7235 59.6011 26.7235 59.6011 26.8486 59.6011C25.4725 58.9756 24.2216 58.2251 23.2208 57.2242C23.5961 57.2242 23.9714 57.0992 24.3466 57.0992C25.3475 58.0999 26.4733 58.8506 27.8494 59.476C27.9744 59.476 27.9744 59.476 28.0996 59.476C29.2255 59.2258 30.3513 58.9756 31.4772 58.6003C31.4772 58.6003 31.4772 58.6003 31.4772 58.4752C30.7265 57.5995 29.976 56.7238 29.3505 55.8481Z" fill="#D9D9D9"/>
<path d="M23.3459 55.8479C22.9707 55.8479 22.5954 55.973 22.2201 55.8479C21.7197 55.0973 21.2194 54.3468 20.719 53.5961C20.4687 53.2209 20.3437 52.7204 20.0935 52.3452C20.4687 52.3452 20.719 52.3452 21.0942 52.3452C21.2194 52.7204 21.3444 52.9706 21.5946 53.3459C22.095 54.0965 22.7204 54.9722 23.3459 55.8479Z" fill="#D9D9D9"/>
<path d="M32.9784 40.3366C33.1035 40.0863 33.2286 39.8361 33.3536 39.5859C34.3545 40.3366 35.2302 41.3373 36.1059 42.338C35.9807 42.7134 35.8556 42.9636 35.6054 43.2137C35.6054 43.0887 35.4804 43.0887 35.4804 43.0887C34.6047 42.0879 33.8541 41.2122 32.9784 40.3366Z" fill="#D9D9D9"/>
<path d="M38.6077 47.0914C38.4827 47.4667 38.2325 47.7169 37.9823 48.0922C37.8572 47.842 37.8572 47.5919 37.7321 47.3417C37.3568 46.466 36.9815 45.5903 36.4811 44.7146C36.6063 44.4644 36.7313 44.2142 36.8564 43.964C36.8564 43.8389 36.9815 43.8389 36.9815 43.7139C37.607 44.7146 38.2325 45.8405 38.6077 47.0914Z" fill="#D9D9D9"/>
<path d="M18.9676 46.8411C19.2178 46.8411 19.468 46.8411 19.7182 46.8411C19.8433 48.2171 20.0935 49.4681 20.5939 50.7192C20.2186 50.7192 19.9683 50.7192 19.5931 50.7192C19.343 49.9685 19.2178 49.343 19.0928 48.5925C19.0928 48.0921 18.9676 47.4666 18.9676 46.8411Z" fill="#D9D9D9"/>
<path d="M19.2177 41.8374C19.4679 41.8374 19.5929 41.9626 19.8431 41.8374C19.8431 41.8374 19.7181 41.9626 19.8431 41.9626C19.8431 42.3378 19.7181 42.5881 19.7181 42.8382C19.5929 43.5888 19.5929 44.4645 19.5929 45.215C19.3428 45.215 19.0926 45.215 18.8424 45.215C18.8424 44.3393 18.8424 43.3386 19.0926 42.4629C19.0926 42.3378 19.0926 42.0876 19.2177 41.8374Z" fill="#D9D9D9"/>
<path d="M28.7251 37.5843C28.8501 37.4593 28.8501 37.2091 29.1003 37.084C29.976 37.4593 30.8517 37.8347 31.7274 38.335C31.8525 38.335 31.8525 38.46 31.9776 38.46C31.8525 38.7102 31.7274 38.9605 31.6022 39.0856C30.7267 38.5852 29.7258 38.0848 28.7251 37.5843Z" fill="#D9D9D9"/>
<path d="M38.3575 49.5935C38.4826 49.2181 38.7328 48.968 38.983 48.7178C39.1081 49.093 39.1081 49.5935 39.1081 49.9687C39.1081 50.8444 39.1081 51.7201 38.8578 52.5958C38.8578 52.7208 38.8578 52.7208 38.7328 52.8459C38.7328 52.8459 38.7328 52.8459 38.6077 52.8459C38.6077 52.8459 38.4826 52.8459 38.4826 52.7208C38.4826 52.5958 38.4826 52.5958 38.4826 52.4706C38.4826 51.5949 38.3575 50.7193 38.2325 49.7185C38.3575 49.7185 38.3575 49.5935 38.3575 49.5935Z" fill="#D9D9D9"/>
<path d="M30.2262 43.0884C30.9769 44.0891 31.6022 44.9648 32.2278 45.9655C32.2278 46.0907 32.3529 46.0907 32.3529 46.2158C32.3529 46.2158 32.3529 46.3409 32.2278 46.3409C31.9776 46.466 31.7274 46.7162 31.4772 46.8412C30.8517 45.7153 30.1012 44.7146 29.3506 43.5887C29.7258 43.4636 29.976 43.3386 30.2262 43.0884Z" fill="#D9D9D9"/>
<path d="M25.5977 49.8438C25.3475 49.2183 24.9722 48.5928 24.722 47.9673C24.4718 47.4669 24.2216 46.8414 24.0966 46.341C24.4718 46.216 24.722 46.0908 25.0973 45.9658C25.4726 47.0917 26.098 48.2174 26.5985 49.2183C26.5985 49.3433 26.5985 49.3433 26.7235 49.4685C26.5985 49.5936 26.3483 49.5936 26.2232 49.7187C25.973 49.7187 25.8479 49.7187 25.5977 49.8438Z" fill="#D9D9D9"/>
<path d="M28.475 54.5973C27.8495 53.5964 27.224 52.5957 26.5986 51.5949C26.5986 51.4698 26.4734 51.3447 26.4734 51.3447C26.8488 51.2197 27.0989 51.0945 27.4743 50.9695C27.9746 51.9702 28.6 52.9709 29.2255 54.0968C29.2255 54.222 29.3507 54.222 29.3507 54.3471C28.9754 54.4721 28.7252 54.5973 28.475 54.5973Z" fill="#D9D9D9"/>
<path d="M33.3537 47.842C33.854 48.8428 34.3545 49.9686 34.8549 51.0945V51.2197C34.6047 51.4698 34.3545 51.5949 34.1042 51.72C33.729 50.9695 33.4788 50.2188 33.1035 49.5934C32.8533 49.2181 32.7281 48.8428 32.478 48.4676C32.7281 48.2173 32.9783 48.0922 33.3537 47.842Z" fill="#D9D9D9"/>
<path d="M26.8487 39.4607C27.3491 39.9611 27.8494 40.4614 28.3498 40.9618C28.6 41.212 28.8502 41.4623 29.1005 41.7124C28.8502 41.9626 28.6 42.0877 28.3498 42.2128C27.7243 41.3371 26.9737 40.5866 26.2232 39.8359C26.4734 39.7109 26.5984 39.5857 26.8487 39.4607Z" fill="#D9D9D9"/>
<path d="M23.5961 44.5895C23.2209 43.5888 22.9707 42.4629 22.7206 41.4622C22.9707 41.3371 23.0958 41.3371 23.3459 41.2119C23.7213 42.2128 23.9715 43.2135 24.3468 44.2143C24.2216 44.4645 23.8464 44.5895 23.5961 44.5895Z" fill="#D9D9D9"/>
<path d="M27.4741 37.084C26.5984 36.8338 25.8479 36.5836 24.9722 36.4585C24.722 36.4585 24.597 36.3334 24.3467 36.3334C24.2216 36.3334 24.2216 36.3334 24.2216 36.2083C24.597 36.0833 26.8487 36.3334 27.8495 36.5836C27.5993 36.8338 27.5993 36.959 27.4741 37.084Z" fill="#D9D9D9"/>
<path d="M19.593 40.5867C19.9684 39.5859 20.3437 38.7102 20.844 37.8345L20.9691 37.7095C20.9691 37.7095 20.9691 37.7095 21.0942 37.7095C21.0942 37.7095 21.0942 37.7095 21.0942 37.8345C21.0942 37.8345 21.0942 37.9597 20.9691 37.9597C20.5939 38.8353 20.2185 39.711 20.0934 40.5867C19.8432 40.7118 19.7182 40.5867 19.593 40.5867Z" fill="#D9D9D9"/>
<path d="M25.3475 38.9598C24.9723 38.5846 24.5969 38.2093 24.2216 37.8339C23.9714 37.5838 23.7213 37.4587 23.4711 37.2086L23.3459 37.0834C23.3459 36.9584 23.4711 37.0834 23.4711 37.0834C23.5961 37.0834 23.5962 37.2086 23.7213 37.2086C24.4718 37.5838 25.0973 38.0842 25.7228 38.5846C25.7228 38.8348 25.5977 38.9598 25.3475 38.9598Z" fill="#D9D9D9"/>
<path d="M22.4702 40.2111C22.3452 39.4605 22.22 38.7099 22.22 37.8343C22.22 37.7091 22.22 37.7091 22.22 37.7091C22.22 37.7091 22.22 37.584 22.3452 37.584C22.4702 37.584 22.4702 37.584 22.4702 37.7091C22.5954 38.4597 22.8455 39.2103 23.0957 39.9609C22.8455 40.2111 22.7204 40.2111 22.4702 40.2111Z" fill="#D9D9D9"/>
</svg>
