<svg width="171" height="104" viewBox="0 0 171 104" fill="none" xmlns="http://www.w3.org/2000/svg">
<path d="M7.22227 25.9177C7.22227 43.1628 7.22227 60.5347 7.22227 77.7798C7.22227 78.1602 7.34907 78.5406 7.22227 78.921C7.09547 79.1746 6.71506 79.4282 6.46146 79.4282C6.20786 79.4282 5.82745 79.1746 5.70065 78.921C5.57385 78.6674 5.70065 78.4138 5.70065 78.1602C5.70065 61.1687 5.70065 44.304 5.70065 27.3125C5.70065 26.8053 5.70065 26.4249 5.57384 25.9177C6.20786 25.9177 6.71506 25.9177 7.22227 25.9177Z" fill="#D9D9D9"/>
<path d="M167.12 79.8084C166.739 79.8084 166.232 79.6816 165.852 79.6816C163.442 79.6816 163.062 79.1744 163.062 76.892C163.062 75.1167 163.062 73.2147 163.062 71.4395C163.062 71.0591 163.062 70.6787 163.062 70.1714C162.428 70.1714 161.921 70.0446 161.287 70.0446C161.287 69.5374 161.287 69.0302 161.287 68.523C161.794 68.523 162.428 68.523 163.062 68.3962C163.062 67.255 163.062 66.2406 163.062 65.0994C163.696 65.0994 164.33 65.0994 164.964 65.0994C164.964 66.1138 164.964 67.1282 164.964 68.3962C165.725 68.3962 166.486 68.3962 167.246 68.3962C167.246 68.9034 167.246 69.5374 167.246 70.0446C166.486 70.0446 165.852 70.0446 165.091 70.0446C165.091 72.4539 165.091 74.6095 165.091 76.892C165.091 77.526 165.344 77.9064 165.978 77.9064C166.359 77.9064 166.866 77.9064 167.246 77.7796C167.12 78.5404 167.12 79.1744 167.12 79.8084Z" fill="#D9D9D9"/>
<path d="M33.5971 25.9177C33.5971 26.0445 33.5971 26.2981 33.7239 26.4249C33.7239 26.5517 33.9775 26.6785 33.9775 26.9321C33.9775 27.0589 33.7239 27.0589 33.4703 27.3125C33.5971 27.5662 33.8507 28.0734 34.1043 28.4538C33.9775 28.5806 33.9775 28.5806 33.8507 28.7074C33.5971 28.4538 33.3435 28.2002 33.2167 27.9466C33.0899 28.2002 32.7095 28.4538 32.4559 28.7074C32.3291 28.5806 32.3291 28.5806 32.2023 28.4538C32.3291 28.2002 32.5827 27.9466 32.7095 27.693C32.7095 27.5662 32.5827 27.4393 32.5827 27.1857C32.5827 26.9321 32.7095 26.8053 32.7095 26.5517C32.7095 26.4249 32.7095 26.1713 32.7095 26.0445C32.9631 25.9177 33.3435 25.9177 33.5971 25.9177Z" fill="#D9D9D9"/>
<path d="M23.4529 29.9757C24.0869 29.8489 24.721 29.5953 25.2282 29.4685C25.6086 30.1025 25.8622 30.6097 26.2426 31.1169C26.1158 32.0045 27.1302 32.1313 27.257 32.7654C27.1302 32.7654 27.0034 32.8922 26.7498 32.8922C27.0034 33.2726 27.257 33.5262 27.5106 34.0334C27.257 34.0334 27.1302 34.1602 26.8766 34.287C27.7642 34.7942 27.0034 36.189 28.1446 36.6962C27.7642 37.3302 27.257 38.091 26.7498 38.8519C26.623 38.7251 26.3694 38.5983 26.2426 38.5983C27.3838 39.9931 28.525 41.3879 28.525 43.2899C28.3982 43.4167 28.2714 43.5435 28.1446 43.5435C28.0178 43.4167 28.0178 43.1631 27.891 42.9095C27.7642 43.1631 27.6374 43.4167 27.6374 43.4167C27.0034 43.2899 26.7498 43.1631 26.2426 43.1631C26.3694 42.6559 26.4962 42.0219 26.623 41.5147C25.7354 41.0075 24.5942 40.5003 23.3261 41.1343C23.8333 41.5147 24.3406 41.8951 24.721 42.1487C25.4818 42.9095 25.4818 43.5435 24.721 44.3043C24.3406 44.6847 23.5797 44.9384 24.2137 45.5724C24.721 46.2064 25.2282 47.094 26.2426 46.7136C27.1302 46.46 27.6374 46.8404 27.891 47.4744C27.5106 47.728 27.1302 47.8548 26.7498 48.2352C24.9746 47.8548 22.9457 47.728 22.3117 45.3188C23.1993 44.4311 23.1993 43.9239 22.4385 42.9095C22.3117 43.5435 22.3117 44.0507 22.1849 44.4311C21.8045 45.826 20.7901 46.5868 19.5221 47.094C18.5077 47.6012 18.2541 49.2496 19.2685 49.8836C19.5221 50.0104 19.7757 49.8836 20.1561 49.8836C20.6633 49.8836 21.1705 50.0104 21.6777 50.1372C21.8045 50.1372 21.6777 50.5176 21.8045 50.7712C21.6777 50.7712 21.4241 50.6444 21.2973 50.6444C21.2973 51.7857 20.2829 51.2785 19.6489 51.5321C19.2685 51.6589 18.7613 51.6589 18.1273 51.6589C18.1273 51.4053 18.1273 51.0249 18.1273 50.6444C18.0004 50.6444 17.7468 50.6444 17.7468 50.6444C17.3664 50.0104 16.986 49.3764 16.8592 48.8692C16.8592 48.2352 17.1128 47.4744 17.3664 46.7136C18.5077 46.8404 18.8881 46.0796 19.1417 45.192C19.2685 44.4311 19.5221 43.6703 19.6489 42.9095C18.7613 43.5435 18.6345 45.3188 16.7324 44.8116C16.986 44.5579 17.1128 44.4311 17.3664 44.3043C16.8592 44.1775 16.4788 44.0507 15.9716 43.9239C16.0984 43.6703 16.352 43.4167 16.352 43.2899C16.0984 42.1487 16.6056 41.3879 17.3664 40.6271C18.0004 39.7395 18.7613 38.9787 19.3953 38.2178C19.6489 37.9642 19.6489 37.457 19.5221 37.0766C19.3953 36.823 18.8881 36.823 18.5077 36.5694C18.8881 39.4859 16.0984 38.9787 15.2108 40.2467C15.084 40.1199 15.084 40.1199 14.9572 39.9931C15.3376 39.4859 15.718 39.1055 16.2252 38.5983C16.2252 38.5983 16.0984 38.5983 16.0984 38.4715C15.9716 37.8374 16.986 36.4426 17.62 36.3158C17.7468 36.3158 18.0004 36.3158 18.1273 36.189C18.7613 35.8086 19.5221 35.6818 19.7757 36.3158C20.0293 36.823 20.1561 37.7106 19.9025 38.2178C19.5221 38.9787 18.7613 39.6127 18.1273 40.3735C17.7468 40.8807 17.2396 41.2611 16.986 41.8951C16.8592 42.2755 17.1128 42.9095 17.2396 43.4167C17.7468 43.2899 18.3809 43.2899 18.6345 42.9095C20.0293 41.0075 21.5509 38.9787 22.1849 36.4426C21.9313 36.5694 21.6777 36.6962 21.4241 36.823C21.4241 36.3158 21.4241 35.8086 21.4241 35.1746C21.2973 35.555 21.1705 35.6818 20.9169 36.0622C20.6633 34.7942 20.0293 33.7798 20.4097 32.6386C20.5365 32.385 20.1561 31.8777 20.0293 31.4973C20.5365 31.1169 21.1705 30.7365 21.6777 30.3561C22.1849 30.4829 22.8189 30.2293 23.4529 29.9757ZM23.9601 33.1458C23.7065 33.2726 23.5797 33.2726 23.3261 33.3994C23.4529 33.7798 23.5797 34.1602 23.8333 34.5406C23.8333 34.5406 24.2137 34.4138 24.4674 34.287C24.2137 33.9066 24.0869 33.5262 23.9601 33.1458Z" fill="#D9D9D9"/>
<path d="M49.8278 48.3615C50.2082 49.3759 49.701 49.6295 48.9401 49.6295C48.6865 50.0099 48.4329 50.3904 48.1793 50.7708C47.9257 51.7852 47.7989 51.912 46.0237 51.7852C46.5309 51.0244 47.1649 50.3904 47.5453 49.7563C47.0381 49.6295 46.6577 49.6295 46.1505 49.5027C46.0237 49.5027 46.0237 48.8687 46.1505 48.8687C46.6577 48.7419 47.0381 48.7419 47.5453 48.7419C47.6721 47.9811 47.5453 47.6007 46.5309 47.2203C45.3897 46.8399 44.6289 45.9523 44.5021 44.6843C43.2341 44.8111 43.1073 45.3183 43.7413 46.8399C42.4732 47.2203 41.2052 47.4739 39.9372 47.8543H39.8104C39.5568 48.9955 38.6692 48.4883 37.9084 48.4883C38.4156 47.6007 39.1764 47.0935 40.1908 47.0935C40.5712 47.0935 41.0784 46.9667 41.4588 46.8399C42.6 46.4595 42.6 46.2059 41.966 45.3183C41.332 44.4307 41.5856 43.2894 42.7268 42.909C43.2341 42.7822 43.7413 42.6554 44.3753 42.4018C43.4877 41.8946 42.4732 41.2606 41.5856 40.7534C41.2052 40.7534 40.698 40.8802 40.4444 40.7534C40.1908 40.6266 40.1908 39.9926 40.064 39.4854C39.9372 39.4854 39.5568 39.4854 39.1764 39.3586C39.43 40.2462 39.8104 40.8802 40.698 41.1338C41.4588 41.3874 41.4588 41.7678 41.0784 42.275C40.5712 42.1482 40.064 41.8946 39.43 41.7678C39.1764 41.1338 38.9228 40.4998 38.6692 39.9926C38.0352 38.8514 38.162 38.5978 39.43 38.5978C39.5568 38.5978 39.6836 38.5978 40.064 38.3442C39.3032 37.7102 38.5424 37.0761 37.9084 36.4421C38.5424 35.5545 39.1764 36.4421 39.8104 36.4421C40.8248 36.5689 40.8248 37.2029 41.332 37.837C41.5856 37.2029 41.8392 36.6957 41.966 36.1885C42.2196 35.5545 42.4732 34.9205 42.6 34.2865C43.4877 34.9205 45.2629 33.9061 45.5165 33.0185C45.0093 33.1453 44.3753 33.2721 43.6145 33.3989C43.3609 33.5257 42.9805 33.9061 42.6 34.1597C42.0928 33.7793 41.5856 33.2721 41.332 32.7649C41.2052 32.6381 41.966 32.0041 42.3464 31.7505C42.7268 31.3701 43.2341 30.9896 43.7413 30.6092C42.7269 29.3412 41.8392 28.0732 40.8248 26.932L40.9516 26.8052C41.966 27.9464 42.9805 29.2144 44.2485 30.4824C44.5021 29.8484 44.6289 29.7216 44.6289 29.5948C45.5165 30.102 46.5309 30.3556 47.1649 30.9896C47.9257 31.7505 48.6865 32.7649 48.4329 34.1597C48.4329 34.5401 48.4329 34.7937 48.4329 35.3009C48.3061 35.4277 47.9257 35.4277 47.9257 35.5545C47.7989 36.8225 47.0381 37.5833 46.1505 38.3442C45.3897 39.105 45.5165 39.4854 46.2773 40.6266C47.0381 40.7534 47.5453 40.7534 47.7989 41.007C47.9257 41.1338 47.6721 41.7678 47.6721 42.1482C47.5453 42.1482 47.5453 42.1482 47.4185 42.1482C47.7989 42.7822 48.1793 43.543 48.5597 44.0503C48.8133 44.3039 49.4474 44.6843 49.701 44.5575C50.0814 44.3039 50.335 43.6698 50.335 43.4162C50.0814 42.7822 49.5742 42.1482 49.0669 41.5142C48.5597 40.8802 47.9257 40.2462 47.6721 39.3586C47.2917 38.3442 47.7989 37.4565 48.8133 37.2029C49.701 36.9493 50.969 37.5834 51.0958 38.471C51.2226 38.8514 51.0958 39.3586 51.3494 39.739C51.4762 40.1194 51.9834 40.2462 52.3638 40.6266C49.9546 40.2462 49.3206 39.6122 49.1938 37.7102C48.0525 37.837 47.5453 38.7246 48.1793 39.739C48.5597 40.373 48.9401 40.8802 49.5742 41.2606C50.8422 42.1482 50.7154 43.543 50.8422 44.8111C50.8422 44.9379 49.9546 45.1915 49.4474 45.4451C49.5742 45.4451 49.701 45.5719 50.0814 45.8255C48.1793 46.3327 48.5597 44.3039 47.7989 43.7967C47.0381 46.4595 47.0381 46.4595 48.4329 46.8399C48.4329 47.0935 48.4329 47.3471 48.4329 47.6007C48.4329 47.8543 48.4329 48.1079 48.4329 48.3615C49.0669 48.4883 49.4474 48.3615 49.8278 48.3615ZM43.4877 36.0617C43.2341 35.9349 42.9805 35.8081 42.7268 35.6813C42.6 35.8081 42.6 35.9349 42.6 35.9349C43.8681 36.6957 45.1361 37.4565 46.5309 38.0906C46.5309 37.9638 46.6577 37.9638 46.6577 37.837C46.1505 37.4565 45.5165 37.0761 45.0093 36.8225C45.1361 36.4421 45.2629 36.1885 45.3897 35.6813C44.8825 36.0617 44.5021 36.5689 44.3753 36.4421C43.4877 36.0617 44.7557 35.4277 44.2485 34.9205C43.8681 35.3009 43.7413 35.5545 43.4877 36.0617Z" fill="#D9D9D9"/>
<path d="M46.4041 79.5549C45.7701 79.5549 45.2629 79.5549 44.5021 79.5549C44.5021 75.4973 44.5021 71.4396 44.5021 67.5087C44.3753 67.5087 44.3753 67.5087 44.2485 67.3819C44.1217 67.7623 43.9949 68.0159 43.8681 68.3963C42.6001 71.82 41.2052 75.3705 39.9372 78.7941C39.6836 79.4281 39.3032 79.5549 38.6692 79.5549C38.0352 79.5549 37.6548 79.4281 37.4012 78.6673C36.1331 75.1169 34.8651 71.6932 33.4703 68.2695C33.3435 68.0159 33.2167 67.6355 32.9631 67.3819C32.9631 71.4396 32.9631 75.3705 32.9631 79.4281C32.3291 79.4281 31.6951 79.4281 31.0611 79.4281C31.0611 74.356 31.0611 69.284 31.0611 64.0851C31.8219 64.0851 32.7095 63.9583 33.4703 64.0851C33.7239 64.0851 33.9775 64.5923 34.1043 64.8459C35.4991 68.3963 36.7672 71.9468 38.162 75.4973C38.2888 75.8777 38.4156 76.1313 38.6692 76.7653C40.064 73.088 41.4588 69.5376 42.7269 65.9871C43.6145 63.7047 43.7413 63.7047 46.2773 64.0851C46.4041 69.4108 46.4041 74.4828 46.4041 79.5549Z" fill="#D9D9D9"/>
<path d="M62.0008 73.3415C62.0008 72.7075 62.0008 72.2003 62.0008 71.5663C64.2832 71.5663 66.4388 71.5663 68.7213 71.5663C68.7213 74.2291 68.7213 76.892 68.7213 79.428C67.58 79.6816 67.58 79.6816 66.946 78.0332C66.8192 78.0332 66.8192 78.0332 66.8192 78.0332C64.7904 80.062 62.2544 80.4424 59.5915 79.5548C56.9287 78.6672 55.407 76.6384 54.8998 73.8487C54.6462 72.3271 54.773 70.6787 55.1534 69.2838C56.2947 64.5922 61.2399 62.4365 65.5512 64.5922C67.3264 65.4798 68.3409 67.0014 68.5945 68.9034C67.9604 68.9034 67.3264 68.9034 66.6924 68.9034C65.5512 66.4942 64.0296 65.353 61.7471 65.6066C59.3379 65.8602 57.6895 67.255 57.0555 69.791C56.5483 71.8199 56.6751 73.7219 57.5627 75.6239C58.7039 77.7796 61.1131 78.794 63.5224 78.0332C65.678 77.3992 66.946 75.6239 66.8192 73.3415C65.2976 73.3415 63.6492 73.3415 62.0008 73.3415Z" fill="#D9D9D9"/>
<path d="M18.3809 52.6731C20.2829 52.7999 21.4241 51.9122 22.6921 51.1514C23.7065 50.5174 24.721 49.7566 25.8622 49.2494C27.3838 48.6154 28.3982 48.9958 29.159 50.3906C29.159 50.5174 29.2858 50.6442 29.2858 50.771C30.0466 52.2926 30.0466 52.2926 28.6518 53.1803C28.525 53.1803 28.525 53.3071 28.3982 53.3071C29.793 54.4483 35.2455 54.5751 37.7816 53.5607V53.4339C37.1476 52.9267 35.8795 52.6731 36.6404 51.405C37.7816 49.1226 38.5424 48.4886 40.1908 49.2494C41.332 49.7566 42.4733 50.5174 43.4877 51.1514C44.7557 51.9122 46.0237 52.7999 47.6721 52.6731C45.8969 54.7019 44.8825 54.8287 42.7269 53.4339C41.5856 52.673 40.4444 52.039 39.1764 51.405C39.9372 52.2926 39.43 53.0535 39.1764 53.9411C38.6692 56.4771 36.7672 56.8575 34.7383 56.8575C33.0899 56.8575 31.4415 56.8575 29.793 56.6039C28.525 56.4771 27.6374 55.8431 27.3838 54.4483C27.3838 54.0679 27.1302 53.8143 27.0034 53.4339C26.623 52.673 26.623 52.039 27.1302 51.2782C26.3694 51.6586 25.6086 52.039 24.9746 52.4194C24.2138 52.7999 23.5797 53.4339 22.8189 53.8143C21.8045 54.4483 20.7901 54.4483 19.9025 53.5607C19.3953 53.3071 19.0149 53.0535 18.3809 52.6731Z" fill="#D9D9D9"/>
<path d="M28.1446 79.555C27.3838 79.555 26.8766 79.555 26.1158 79.555C26.1158 77.2725 26.1158 74.9901 26.1158 72.5809C23.4529 72.5809 20.7901 72.5809 18.1273 72.5809C18.1273 74.8633 18.1273 77.1457 18.1273 79.4282C17.3664 79.4282 16.7324 79.4282 16.0984 79.4282C16.0984 74.3561 16.0984 69.284 16.0984 64.2119C16.7324 64.2119 17.3664 64.2119 18.1273 64.2119C18.1273 66.3675 18.1273 68.3964 18.1273 70.6788C20.7901 70.6788 23.4529 70.6788 26.1158 70.6788C26.1158 68.5232 26.1158 66.4944 26.1158 64.2119C26.8766 64.2119 27.5106 64.2119 28.2714 64.2119C28.1446 69.284 28.1446 74.4829 28.1446 79.555Z" fill="#D9D9D9"/>
<path d="M130.727 79.5549C130.093 79.5549 129.586 79.5549 128.825 79.5549C128.825 78.2868 128.825 76.892 128.825 75.624C128.825 74.4828 128.825 73.3416 128.825 72.2003C128.825 71.3127 128.572 70.4251 127.557 70.0447C126.543 69.6643 125.148 70.0447 124.641 70.8055C124.261 71.4395 123.88 72.2003 123.88 72.9612C123.753 74.99 123.88 77.1456 123.88 79.1744C123.88 79.3013 123.88 79.3013 123.88 79.4281C123.373 79.4281 122.739 79.4281 122.105 79.4281C122.105 75.7508 122.105 72.2003 122.105 68.3963C122.612 68.3963 123.119 68.3963 123.753 68.3963C123.753 68.7767 123.753 69.1571 123.88 69.6643C124.895 68.6499 125.909 68.0159 127.304 68.0159C128.699 68.0159 129.84 68.3963 130.601 69.7911C131.742 68.2695 133.137 67.8891 134.912 68.1427C136.56 68.2695 137.702 69.1571 137.828 70.9323C137.955 73.722 137.828 76.6384 137.828 79.5549C137.194 79.5549 136.687 79.5549 135.926 79.5549C135.926 78.4136 135.926 77.2724 135.926 76.1312C135.926 74.8632 135.926 73.5952 135.926 72.3271C135.926 70.6787 135.292 69.9179 133.898 69.9179C132.249 69.9179 130.981 70.8055 130.981 72.3271C130.854 74.356 130.981 76.3848 130.981 78.4136C130.727 78.794 130.727 79.1745 130.727 79.5549Z" fill="#D9D9D9"/>
<path d="M149.367 74.6098C146.705 74.6098 143.915 74.6098 141.252 74.6098C140.998 76.1314 141.632 77.3994 143.027 77.9066C144.549 78.5406 146.197 78.1602 146.958 77.019C147.719 76.0046 147.719 76.0046 149.114 76.0046C149.114 77.7798 147.719 79.3014 145.817 79.6818C141.632 80.4427 138.843 77.9066 139.096 73.4685C139.223 70.4253 141.252 68.3965 143.788 68.2697C147.465 68.0161 149.875 70.8057 149.367 74.6098ZM141.252 72.8345C143.281 72.8345 145.31 72.8345 147.465 72.8345C147.339 71.0593 146.071 69.9181 144.422 69.9181C142.52 69.9181 141.379 70.9325 141.252 72.8345Z" fill="#D9D9D9"/>
<path d="M102.07 74.6096C99.2806 74.6096 96.4909 74.6096 93.8281 74.6096C93.9549 77.2725 95.8569 78.7941 98.2661 78.0333C98.7733 77.9065 99.4074 77.5261 99.661 77.0189C100.168 75.8776 100.929 75.8776 101.943 76.1312C101.69 77.5261 101.056 78.6673 99.7878 79.3013C96.6177 80.9497 92.9404 79.3013 92.1796 75.8776C91.926 74.8632 91.926 73.722 92.0528 72.7076C92.56 69.7911 94.7157 68.1427 97.6321 68.2695C100.041 68.3963 101.817 70.2983 102.07 73.088C102.07 73.5952 102.07 73.9756 102.07 74.6096ZM100.041 72.8344C99.661 70.6787 98.3929 69.6643 96.4909 69.7911C94.9693 69.9179 93.8281 71.186 93.8281 72.8344C95.9837 72.8344 98.0125 72.8344 100.041 72.8344Z" fill="#D9D9D9"/>
<path d="M75.949 68.2698C79.2458 68.2698 81.4015 70.4254 81.4015 73.9759C81.4015 77.5263 79.2458 79.9356 75.949 79.9356C72.6521 79.9356 70.4965 77.6531 70.4965 73.9759C70.4965 70.4254 72.5253 68.2698 75.949 68.2698ZM79.6262 74.2295L79.4994 74.1027C79.3726 73.4687 79.3726 72.9615 79.2458 72.3274C78.7386 70.8058 77.5974 69.9182 76.0758 69.9182C74.5542 69.9182 73.2861 70.679 72.7789 72.3274C72.3985 73.5955 72.3985 74.9903 72.9057 76.2583C73.9201 78.5407 76.9634 78.9211 78.3582 77.0191C78.9922 76.2583 79.2458 75.1171 79.6262 74.2295Z" fill="#D9D9D9"/>
<path d="M119.569 79.5552C118.935 79.5552 118.428 79.5552 117.794 79.5552C117.794 78.6675 117.794 77.9067 117.794 77.0191C117.794 75.4975 117.794 73.9759 117.794 72.4542C117.794 71.0594 117.413 70.1718 116.399 69.9182C115.258 69.5378 113.609 69.9182 112.975 70.9326C112.595 71.5666 112.341 72.4542 112.341 73.215C112.214 75.2439 112.341 77.2727 112.341 79.4283C111.707 79.4283 111.073 79.4283 110.566 79.4283C110.566 75.7511 110.566 72.0738 110.566 68.3966C111.073 68.3966 111.58 68.3966 112.214 68.3966C112.214 68.777 112.341 69.1574 112.341 69.7914C113.482 68.2698 115.004 68.0162 116.652 68.143C118.301 68.2698 119.569 69.2842 119.696 70.9326C119.696 73.8491 119.569 76.6387 119.569 79.5552Z" fill="#D9D9D9"/>
<path d="M152.791 79.5547C152.157 79.5547 151.523 79.5547 151.016 79.5547C151.016 75.8775 151.016 72.2002 151.016 68.5229C151.523 68.5229 152.157 68.5229 152.664 68.5229C152.664 68.9033 152.664 69.2837 152.791 69.791C152.918 69.6642 153.171 69.6642 153.171 69.5373C154.566 68.0157 156.341 67.8889 158.117 68.5229C159.512 68.9033 160.019 70.0446 160.146 71.3126C160.272 74.1022 160.146 76.7651 160.146 79.5547C159.512 79.5547 159.004 79.5547 158.244 79.5547C158.244 77.2723 158.244 74.9898 158.244 72.7074C158.244 70.6786 157.61 69.9178 156.215 69.9178C154.313 69.791 152.918 70.9322 152.918 72.7074C152.791 74.6094 152.918 76.6383 152.918 78.5403C152.791 78.7939 152.791 79.1743 152.791 79.5547Z" fill="#D9D9D9"/>
<path d="M81.5283 68.5232C82.1623 68.5232 82.7963 68.5232 83.5571 68.5232C84.5715 71.4397 85.586 74.3561 86.6004 77.5262C86.7272 77.1457 86.854 76.8921 86.9808 76.6385C87.7416 74.4829 88.3756 72.2005 89.1364 70.0448C89.6436 68.3964 89.6436 68.3964 91.5456 68.5232C91.5456 68.7768 91.4188 69.0304 91.4188 69.1572C90.2776 72.4541 89.0096 75.6241 87.8684 78.921C87.6148 79.555 87.2344 79.6818 86.7272 79.555C86.22 79.555 85.7128 79.6818 85.3323 78.921C84.0643 75.4973 82.7963 72.2005 81.5283 68.7768C81.5283 68.7768 81.5283 68.65 81.5283 68.5232Z" fill="#D9D9D9"/>
<path d="M105.367 79.5549C104.733 79.5549 104.099 79.5549 103.465 79.5549C103.465 75.8777 103.465 72.2004 103.465 68.5232C103.972 68.5232 104.606 68.5232 105.113 68.5232C105.113 69.1572 105.24 69.6644 105.24 70.552C106.255 69.0304 107.396 68.0159 109.298 68.2696C109.298 68.9036 109.298 69.4108 109.298 70.0448C108.918 70.1716 108.537 70.1716 108.157 70.2984C106.635 70.552 105.621 71.4396 105.494 72.9612C105.24 74.6097 105.367 76.2581 105.24 77.7797C105.367 78.4137 105.367 78.9209 105.367 79.5549Z" fill="#D9D9D9"/>
<path d="M34.6115 48.2348C35.1187 48.3616 35.7527 48.6152 36.3867 48.8688C34.8651 50.3904 33.2167 49.7564 31.4415 49.376C28.525 48.742 27.6374 46.4596 26.7498 44.1771C27.5106 44.0503 28.1446 43.9235 28.9054 43.6699C29.2858 45.8256 30.9343 46.84 32.8363 47.7276C33.4703 47.8544 34.1043 47.9812 34.6115 48.2348Z" fill="#D9D9D9"/>
<path d="M29.6662 43.0361C30.4271 42.9093 31.0611 42.9093 31.8219 42.7825C32.0755 42.7825 32.4559 43.0361 32.4559 43.1629C32.4559 44.1773 32.3291 45.1917 32.2023 46.2061C32.2023 46.3329 32.0755 46.3329 31.9487 46.4597C30.9343 45.5721 29.5394 44.8113 29.6662 43.0361Z" fill="#D9D9D9"/>
<path d="M32.5827 50.01C32.8363 50.01 33.3435 50.1368 33.5971 50.1368C33.9775 50.644 34.3579 51.0244 34.6115 51.4048C34.7383 51.6584 34.8651 52.0388 34.8651 52.1656C34.3579 52.7997 33.8507 53.4337 33.2167 53.9409C33.2167 53.9409 32.8363 53.5605 32.5827 53.4337C32.3291 53.1801 31.9487 52.9265 31.6951 52.5461C31.5683 52.2924 31.4415 51.7852 31.5683 51.5316C31.8219 51.0244 32.2023 50.5172 32.5827 50.01ZM33.4703 50.7708C33.2167 50.7708 33.0899 50.7708 32.8363 50.7708C32.8363 51.278 32.7095 51.6584 32.7095 52.0388C32.5827 51.912 32.3291 51.6584 32.2023 51.6584C32.0755 51.6584 31.9487 51.7852 31.8219 51.912C31.8219 51.912 31.8219 52.1656 31.9487 52.2925C32.2023 52.5461 32.4559 52.9265 32.8363 53.1801C32.9631 53.0533 33.0899 52.7997 33.2167 52.5461C33.3435 52.7997 33.4703 52.9265 33.5971 53.1801C33.9775 52.6729 34.2311 52.4193 34.6115 52.0388C34.6115 51.912 34.4847 51.912 34.4847 51.7852C34.1043 51.912 33.8507 52.0388 33.5971 52.1656C33.4703 51.6584 33.4703 51.1512 33.4703 50.7708Z" fill="#D9D9D9"/>
<path d="M23.4529 29.9756C22.8189 30.2292 22.1849 30.4828 21.4241 30.6096C21.0437 30.356 20.5365 30.2292 20.0293 29.9756C20.7901 29.5952 21.2973 29.2148 21.8045 28.9612C22.0581 28.8344 22.4385 29.088 22.6921 29.2148C22.6921 29.088 22.6921 28.7076 22.8189 28.3272C23.0725 28.454 23.1993 28.5808 23.4529 28.7076C23.5797 28.454 23.7065 28.2004 23.8333 27.9468C23.9601 27.9468 23.9601 27.9468 24.0869 27.9468C23.8333 28.7076 23.7065 29.3416 23.4529 29.9756Z" fill="#D9D9D9"/>
<path d="M49.8278 48.3616C49.8278 47.9812 49.8278 47.474 50.0814 47.3472C50.335 47.0936 50.969 46.9668 51.2226 47.0936C51.4762 47.2204 51.7298 47.9812 51.603 48.2348C51.4762 48.6152 50.8422 48.742 50.4618 48.8688C50.335 48.8688 50.0814 48.4884 49.8278 48.3616ZM50.8422 46.9668C50.5886 47.3472 50.2082 47.6008 50.2082 47.8544C50.2082 48.108 50.5886 48.3616 50.8422 48.4884C51.0958 48.2348 51.4762 48.108 51.4762 47.8544C51.4762 47.7276 51.0958 47.3472 50.8422 46.9668Z" fill="#D9D9D9"/>
<path d="M32.2023 28.8342C32.8363 28.8342 33.3435 28.8342 33.8507 28.8342C33.9775 29.0878 34.1043 29.4682 34.2311 29.8486C33.7239 29.0878 32.4559 29.9754 32.2023 28.8342Z" fill="#D9D9D9"/>
<path d="M46.4041 47.7276C46.0237 47.9812 45.8969 48.3616 45.6433 48.3616C45.3897 48.3616 45.0093 47.9812 45.0093 47.7276C45.0093 47.474 45.3897 47.2204 45.5165 46.9668C45.7701 47.2204 46.0237 47.474 46.4041 47.7276Z" fill="#D9D9D9"/>
<path d="M42.0928 36.1884C41.7124 36.3152 41.4588 36.442 41.0784 36.442C41.0784 36.442 40.8248 36.0616 40.8248 35.9348C40.9516 35.6812 41.2052 35.4276 41.332 35.4276C42.0928 35.174 42.0928 35.6812 42.0928 36.1884Z" fill="#D9D9D9"/>
<path d="M32.3291 40.8806C32.3291 41.1342 32.4559 41.3878 32.5827 41.6414C31.5683 41.6414 30.5539 41.6414 29.6662 41.6414C29.6662 41.3878 29.6662 41.1342 29.6662 40.8806C30.5539 40.8806 31.4415 40.8806 32.3291 40.8806Z" fill="#D9D9D9"/>
<path d="M32.7095 40.5C31.6951 40.5 30.8074 40.5 29.9198 40.5C29.793 39.866 30.1734 39.4856 30.8074 39.4856C32.4559 39.4856 32.4559 39.4856 32.7095 40.5Z" fill="#D9D9D9"/>
<path d="M32.2023 37.8369C32.4559 38.3441 32.5827 38.7245 32.8363 39.2317C32.0755 39.2317 31.3147 39.3585 30.6807 39.3585C30.6807 39.2317 30.5538 39.2317 30.5538 39.1049C31.0611 38.5977 31.5683 38.2173 32.2023 37.8369Z" fill="#D9D9D9"/>
<path d="M34.7383 43.7971C34.6115 44.4311 34.8651 44.3043 35.3723 44.1775C36.0063 43.9239 36.3867 44.1775 36.3867 44.9383C35.4991 44.9383 34.6115 45.0651 33.8507 45.0651C33.8507 44.9383 33.7239 44.9383 33.7239 44.8115C33.9775 44.4311 34.3579 44.0507 34.7383 43.7971Z" fill="#D9D9D9"/>
<path d="M35.8795 45.8255C35.2455 46.0791 34.4847 46.3327 33.8507 46.5863C33.8507 46.0791 33.8507 45.8255 33.8507 45.4451C34.4847 45.4451 35.1187 45.4451 35.8795 45.4451C35.7527 45.5719 35.8795 45.6987 35.8795 45.8255Z" fill="#D9D9D9"/>
<path d="M36.6403 40.7535C36.7671 41.0071 36.8939 41.3875 37.0207 41.7679C35.8795 41.7679 34.8651 41.7679 33.7239 41.7679C33.7239 40.4998 33.7239 39.105 33.7239 37.7102C35.2455 38.3442 36.3867 39.2318 36.6403 40.7535C36.5135 40.6267 36.3867 40.4999 36.1331 40.2462C36.1331 40.6267 36.1331 40.8803 36.1331 41.0071C35.4991 41.0071 35.1187 41.0071 34.6115 40.8803C34.7383 40.7535 34.8651 40.4999 34.9919 40.1194C34.6115 40.2462 34.2311 40.2462 33.9775 40.2462C33.8507 41.1339 33.9775 41.6411 34.9919 41.2607C35.1187 41.2607 35.3723 41.2607 35.6259 41.3875C36.2599 41.6411 36.6403 41.5143 36.6403 40.7535Z" fill="#D9D9D9"/>
</svg>
